<svg width="108" height="20" viewBox="0 0 108 20" fill="none" xmlns="http://www.w3.org/2000/svg">
<path d="M26.65 15C26.55 15 26.465 14.97 26.395 14.91C26.335 14.84 26.305 14.755 26.305 14.655V4.86C26.305 4.75 26.335 4.665 26.395 4.605C26.465 4.535 26.55 4.5 26.65 4.5H27.4C27.56 4.5 27.69 4.58 27.79 4.74L30.955 10.8L34.15 4.74C34.17 4.68 34.21 4.625 34.27 4.575C34.34 4.525 34.425 4.5 34.525 4.5H35.26C35.37 4.5 35.455 4.535 35.515 4.605C35.585 4.665 35.62 4.75 35.62 4.86V14.655C35.62 14.755 35.585 14.84 35.515 14.91C35.445 14.97 35.36 15 35.26 15H34.525C34.425 15 34.34 14.97 34.27 14.91C34.21 14.84 34.18 14.755 34.18 14.655V7.275L31.675 12.165C31.575 12.375 31.415 12.48 31.195 12.48H30.73C30.51 12.48 30.35 12.375 30.25 12.165L27.73 7.275V14.655C27.73 14.755 27.695 14.84 27.625 14.91C27.565 14.97 27.485 15 27.385 15H26.65ZM38.2442 5.745C38.1442 5.745 38.0592 5.715 37.9892 5.655C37.9292 5.585 37.8992 5.5 37.8992 5.4V4.59C37.8992 4.49 37.9292 4.405 37.9892 4.335C38.0592 4.265 38.1442 4.23 38.2442 4.23H39.1892C39.2892 4.23 39.3742 4.265 39.4442 4.335C39.5142 4.405 39.5492 4.49 39.5492 4.59V5.4C39.5492 5.5 39.5142 5.585 39.4442 5.655C39.3742 5.715 39.2892 5.745 39.1892 5.745H38.2442ZM38.3642 15C38.2642 15 38.1792 14.97 38.1092 14.91C38.0492 14.84 38.0192 14.755 38.0192 14.655V7.545C38.0192 7.445 38.0492 7.365 38.1092 7.305C38.1792 7.235 38.2642 7.2 38.3642 7.2H39.0842C39.1842 7.2 39.2642 7.235 39.3242 7.305C39.3942 7.365 39.4292 7.445 39.4292 7.545V14.655C39.4292 14.755 39.3942 14.84 39.3242 14.91C39.2642 14.97 39.1842 15 39.0842 15H38.3642ZM48.282 7.2C48.362 7.2 48.432 7.23 48.492 7.29C48.562 7.35 48.597 7.42 48.597 7.5V14.655C48.597 14.755 48.562 14.84 48.492 14.91C48.432 14.97 48.352 15 48.252 15H47.547C47.447 15 47.362 14.97 47.292 14.91C47.232 14.84 47.202 14.755 47.202 14.655V9.21L43.047 14.775C42.937 14.925 42.807 15 42.657 15H41.982C41.892 15 41.812 14.97 41.742 14.91C41.682 14.84 41.652 14.765 41.652 14.685V7.545C41.652 7.445 41.682 7.365 41.742 7.305C41.812 7.235 41.897 7.2 41.997 7.2H42.717C42.817 7.2 42.897 7.235 42.957 7.305C43.027 7.365 43.062 7.445 43.062 7.545V12.96L47.202 7.425C47.312 7.275 47.442 7.2 47.592 7.2H48.282ZM45.162 6.165C44.362 6.165 43.787 5.99 43.437 5.64C43.087 5.29 42.912 4.84 42.912 4.29C42.912 4.21 42.937 4.145 42.987 4.095C43.037 4.035 43.107 4.005 43.197 4.005H43.707C43.797 4.005 43.867 4.035 43.917 4.095C43.967 4.145 43.992 4.21 43.992 4.29C43.992 4.92 44.382 5.235 45.162 5.235C45.942 5.235 46.332 4.92 46.332 4.29C46.332 4.21 46.357 4.145 46.407 4.095C46.457 4.035 46.527 4.005 46.617 4.005H47.142C47.232 4.005 47.302 4.035 47.352 4.095C47.402 4.145 47.427 4.21 47.427 4.29C47.427 4.83 47.247 5.28 46.887 5.64C46.537 5.99 45.962 6.165 45.162 6.165ZM60.9794 14.565C61.0294 14.625 61.0544 14.69 61.0544 14.76C61.0544 14.83 61.0244 14.89 60.9644 14.94C60.9144 14.98 60.8444 15 60.7544 15H59.8394C59.6794 15 59.5494 14.925 59.4494 14.775L57.2744 11.64H55.8644V14.655C55.8644 14.755 55.8294 14.84 55.7594 14.91C55.6994 14.97 55.6194 15 55.5194 15H54.8144C54.7144 15 54.6294 14.97 54.5594 14.91C54.4994 14.84 54.4694 14.755 54.4694 14.655V7.545C54.4694 7.445 54.4994 7.365 54.5594 7.305C54.6294 7.235 54.7144 7.2 54.8144 7.2H55.5194C55.6194 7.2 55.6994 7.235 55.7594 7.305C55.8294 7.365 55.8644 7.445 55.8644 7.545V10.425H57.2444L59.2544 7.425C59.3744 7.275 59.5094 7.2 59.6594 7.2H60.4394C60.5294 7.2 60.6044 7.225 60.6644 7.275C60.7244 7.315 60.7544 7.37 60.7544 7.44C60.7544 7.49 60.7294 7.55 60.6794 7.62L58.4444 10.935L60.9794 14.565ZM64.6864 15.15C64.1964 15.15 63.7414 15.05 63.3214 14.85C62.9014 14.65 62.5664 14.38 62.3164 14.04C62.0764 13.69 61.9564 13.305 61.9564 12.885C61.9564 12.225 62.2264 11.685 62.7664 11.265C63.3164 10.835 64.0564 10.555 64.9864 10.425L67.2214 10.11V9.675C67.2214 8.655 66.6364 8.145 65.4664 8.145C65.0264 8.145 64.6664 8.24 64.3864 8.43C64.1064 8.61 63.8964 8.825 63.7564 9.075C63.7264 9.165 63.6864 9.23 63.6364 9.27C63.5964 9.31 63.5364 9.33 63.4564 9.33H62.8114C62.7214 9.33 62.6414 9.3 62.5714 9.24C62.5114 9.17 62.4814 9.09 62.4814 9C62.4914 8.76 62.6014 8.49 62.8114 8.19C63.0314 7.88 63.3664 7.615 63.8164 7.395C64.2664 7.165 64.8214 7.05 65.4814 7.05C66.6014 7.05 67.4064 7.315 67.8964 7.845C68.3864 8.365 68.6314 9.015 68.6314 9.795V14.655C68.6314 14.755 68.5964 14.84 68.5264 14.91C68.4664 14.97 68.3864 15 68.2864 15H67.5964C67.4964 15 67.4114 14.97 67.3414 14.91C67.2814 14.84 67.2514 14.755 67.2514 14.655V14.01C67.0314 14.33 66.7114 14.6 66.2914 14.82C65.8714 15.04 65.3364 15.15 64.6864 15.15ZM65.0014 14.025C65.6514 14.025 66.1814 13.815 66.5914 13.395C67.0114 12.965 67.2214 12.35 67.2214 11.55V11.13L65.4814 11.385C64.7714 11.485 64.2364 11.655 63.8764 11.895C63.5164 12.125 63.3364 12.42 63.3364 12.78C63.3364 13.18 63.5014 13.49 63.8314 13.71C64.1614 13.92 64.5514 14.025 65.0014 14.025ZM77.6127 10.92C77.6227 11.02 77.6277 11.18 77.6277 11.4C77.6277 11.59 77.6227 11.725 77.6127 11.805C77.5727 12.815 77.2477 13.625 76.6377 14.235C76.0377 14.845 75.1877 15.15 74.0877 15.15C72.9577 15.15 72.0977 14.83 71.5077 14.19C70.9177 13.55 70.6027 12.67 70.5627 11.55L70.5477 10.65L70.5627 9.75C70.5727 8.32 70.7627 7.25 71.1327 6.54C71.5127 5.82 72.0477 5.305 72.7377 4.995C73.4377 4.675 74.5677 4.31 76.1277 3.9L76.4877 3.81L76.5627 3.795C76.6427 3.795 76.7127 3.825 76.7727 3.885C76.8427 3.935 76.8827 3.995 76.8927 4.065L77.0127 4.68L77.0277 4.77C77.0277 4.84 77.0027 4.9 76.9527 4.95C76.9127 5 76.8527 5.035 76.7727 5.055L76.0227 5.235C74.8727 5.515 74.0477 5.755 73.5477 5.955C73.0477 6.155 72.6577 6.47 72.3777 6.9C72.1077 7.32 71.9577 7.95 71.9277 8.79C72.1677 8.43 72.5077 8.14 72.9477 7.92C73.3877 7.69 73.8527 7.575 74.3427 7.575C75.3527 7.575 76.1377 7.885 76.6977 8.505C77.2677 9.115 77.5727 9.92 77.6127 10.92ZM76.1727 11.745C76.1827 11.675 76.1877 11.56 76.1877 11.4C76.1877 11.22 76.1827 11.085 76.1727 10.995C76.1527 10.265 75.9627 9.7 75.6027 9.3C75.2527 8.89 74.7927 8.685 74.2227 8.685C73.5827 8.685 73.0577 8.89 72.6477 9.3C72.2477 9.7 72.0327 10.265 72.0027 10.995L71.9877 11.4L72.0027 11.745C72.0327 12.485 72.2327 13.055 72.6027 13.455C72.9727 13.845 73.4677 14.04 74.0877 14.04C74.7177 14.04 75.2177 13.845 75.5877 13.455C75.9577 13.055 76.1527 12.485 76.1727 11.745ZM79.7286 5.745C79.6286 5.745 79.5436 5.715 79.4736 5.655C79.4136 5.585 79.3836 5.5 79.3836 5.4V4.59C79.3836 4.49 79.4136 4.405 79.4736 4.335C79.5436 4.265 79.6286 4.23 79.7286 4.23H80.6736C80.7736 4.23 80.8586 4.265 80.9286 4.335C80.9986 4.405 81.0336 4.49 81.0336 4.59V5.4C81.0336 5.5 80.9986 5.585 80.9286 5.655C80.8586 5.715 80.7736 5.745 80.6736 5.745H79.7286ZM79.8486 15C79.7486 15 79.6636 14.97 79.5936 14.91C79.5336 14.84 79.5036 14.755 79.5036 14.655V7.545C79.5036 7.445 79.5336 7.365 79.5936 7.305C79.6636 7.235 79.7486 7.2 79.8486 7.2H80.5686C80.6686 7.2 80.7486 7.235 80.8086 7.305C80.8786 7.365 80.9136 7.445 80.9136 7.545V14.655C80.9136 14.755 80.8786 14.84 80.8086 14.91C80.7486 14.97 80.6686 15 80.5686 15H79.8486ZM83.4814 15C83.3814 15 83.2964 14.97 83.2264 14.91C83.1664 14.84 83.1364 14.755 83.1364 14.655V7.545C83.1364 7.445 83.1664 7.365 83.2264 7.305C83.2964 7.235 83.3814 7.2 83.4814 7.2H84.2014C84.3014 7.2 84.3814 7.235 84.4414 7.305C84.5114 7.365 84.5464 7.445 84.5464 7.545V10.425H88.6264V7.545C88.6264 7.445 88.6564 7.365 88.7164 7.305C88.7864 7.235 88.8714 7.2 88.9714 7.2H89.6764C89.7764 7.2 89.8564 7.235 89.9164 7.305C89.9864 7.365 90.0214 7.445 90.0214 7.545V14.655C90.0214 14.755 89.9864 14.84 89.9164 14.91C89.8564 14.97 89.7764 15 89.6764 15H88.9714C88.8714 15 88.7864 14.97 88.7164 14.91C88.6564 14.84 88.6264 14.755 88.6264 14.655V11.625H84.5464V14.655C84.5464 14.755 84.5114 14.84 84.4414 14.91C84.3814 14.97 84.3014 15 84.2014 15H83.4814ZM95.397 15.15C94.367 15.15 93.542 14.835 92.922 14.205C92.312 13.565 91.977 12.695 91.917 11.595L91.902 11.085L91.917 10.59C91.987 9.51 92.327 8.65 92.937 8.01C93.557 7.37 94.372 7.05 95.382 7.05C96.492 7.05 97.352 7.405 97.962 8.115C98.572 8.815 98.877 9.765 98.877 10.965V11.22C98.877 11.32 98.842 11.405 98.772 11.475C98.712 11.535 98.632 11.565 98.532 11.565H93.342V11.7C93.372 12.35 93.567 12.905 93.927 13.365C94.297 13.815 94.782 14.04 95.382 14.04C95.842 14.04 96.217 13.95 96.507 13.77C96.807 13.58 97.027 13.385 97.167 13.185C97.257 13.065 97.322 12.995 97.362 12.975C97.412 12.945 97.497 12.93 97.617 12.93H98.352C98.442 12.93 98.517 12.955 98.577 13.005C98.637 13.055 98.667 13.125 98.667 13.215C98.667 13.435 98.527 13.7 98.247 14.01C97.977 14.32 97.592 14.59 97.092 14.82C96.602 15.04 96.037 15.15 95.397 15.15ZM97.452 10.53V10.485C97.452 9.795 97.262 9.235 96.882 8.805C96.512 8.365 96.012 8.145 95.382 8.145C94.752 8.145 94.252 8.365 93.882 8.805C93.522 9.235 93.342 9.795 93.342 10.485V10.53H97.452ZM103.056 15C102.956 15 102.871 14.97 102.801 14.91C102.741 14.84 102.711 14.755 102.711 14.655V8.4H100.101C100.001 8.4 99.9155 8.37 99.8455 8.31C99.7855 8.24 99.7555 8.155 99.7555 8.055V7.545C99.7555 7.445 99.7855 7.365 99.8455 7.305C99.9155 7.235 100.001 7.2 100.101 7.2H106.701C106.801 7.2 106.881 7.235 106.941 7.305C107.011 7.365 107.046 7.445 107.046 7.545V8.055C107.046 8.155 107.011 8.24 106.941 8.31C106.881 8.37 106.801 8.4 106.701 8.4H104.091V14.655C104.091 14.755 104.061 14.84 104.001 14.91C103.941 14.97 103.861 15 103.761 15H103.056Z" fill="#FFFBEE"/>
<g clip-path="url(#clip0)">
<path d="M18.1796 19.738H16.1796C16.1796 16.364 13.3496 13.62 9.86859 13.62C6.38759 13.62 3.55859 16.365 3.55859 19.738H1.55859C1.55859 15.26 5.28759 11.62 9.86959 11.62C14.4506 11.62 18.1796 15.26 18.1796 19.738Z" fill="#FFFBEE"/>
<path d="M9.86974 10.97C6.84674 10.97 4.38574 8.508 4.38574 5.485C4.38474 2.461 6.84574 0 9.86974 0C12.8947 0 15.3557 2.46 15.3557 5.485C15.3557 8.51 12.8947 10.97 9.86974 10.97ZM9.86974 2C7.94774 2 6.38474 3.563 6.38474 5.485C6.38474 7.407 7.94774 8.97 9.86974 8.97C11.7927 8.97 13.3557 7.407 13.3557 5.485C13.3557 3.563 11.7907 2 9.86974 2Z" fill="#FFFBEE"/>
</g>
<defs>
<clipPath id="clip0">
<rect width="19.738" height="19.738" fill="white"/>
</clipPath>
</defs>
</svg>
