<svg width="230" height="211" viewBox="0 0 230 211" fill="none" xmlns="http://www.w3.org/2000/svg">
<g clip-path="url(#clip0)">
<path d="M225.265 175.633H7.47754V184.32H225.265V175.633Z" fill="#040100" fill-opacity="0.8"/>
<path d="M221.968 38.7875C206.151 30.3304 188.179 34.8228 175.889 40.0801L139.254 55.752L76.2475 26.6798L38.725 28.1587L90.7541 76.5477L57.5959 90.9978L23.0978 78.9531L0 88.8335L20.874 112.613C18.6687 115.027 16.6702 118.425 18.4845 121.995C20.8541 126.656 27.8579 129.005 39.3462 129.005C41.7021 129.005 44.2469 128.906 46.9783 128.708C59.5891 127.794 73.2615 124.841 81.8106 121.184L212.765 65.1632C224.076 60.3243 229.71 55.2433 229.99 49.6291C230.134 46.7172 228.86 42.4716 221.968 38.7875ZM208.763 57.29L77.8085 113.311C70.5249 116.427 58.5669 119.038 47.3442 119.962C35.8734 120.907 29.7403 119.721 27.696 118.714C28.1169 118.185 28.9028 117.354 30.353 116.183L33.7543 113.437L14.9544 92.0207L23.47 88.3774L58.0049 100.436L106.85 79.1494L60.4522 35.9968L74.1923 35.4552L139.097 65.4026L179.89 47.9525C194.788 41.5794 207.34 41.0217 217.199 46.292L217.2 46.2925C219.684 47.6202 220.552 48.7786 220.53 49.2329C220.529 49.2642 220.244 52.3793 208.763 57.29Z" fill="#040100" fill-opacity="0.8"/>
</g>
<defs>
<clipPath id="clip0">
<rect width="230" height="211" fill="white"/>
</clipPath>
</defs>
</svg>
