<svg width="34" height="33" viewBox="0 0 34 33" fill="none" xmlns="http://www.w3.org/2000/svg">
<g clip-path="url(#clip0)">
<path d="M31.2339 21.5753C30.2939 20.2678 29.8242 18.7947 29.8242 17.1573C29.8242 15.6648 30.2675 14.2974 31.1522 13.056C31.629 12.3824 32.4056 11.6033 33.4817 10.7182C32.7735 9.8731 32.0652 9.21268 31.3564 8.73706C30.0761 7.87866 28.6252 7.44946 27.0044 7.44946C26.0375 7.44946 24.8589 7.67388 23.4698 8.12327C22.1348 8.57232 21.1608 8.79708 20.5481 8.79708C20.0847 8.79708 19.145 8.59911 17.7283 8.20266C16.2981 7.80635 15.0925 7.60837 14.1118 7.60837C11.7688 7.60837 9.83456 8.55948 8.309 10.4613C6.76976 12.3897 6 14.8596 6 17.8711C6 21.0675 7.00142 24.3891 9.00368 27.8365C11.0331 31.2574 13.0833 32.9681 15.1538 32.9681C15.8484 32.9681 16.7475 32.7435 17.8507 32.2944C18.9543 31.8589 19.9213 31.6407 20.7523 31.6407C21.6375 31.6407 22.6661 31.852 23.8375 32.2744C25.0769 32.6967 26.0307 32.9081 26.698 32.9081C28.4415 32.9081 30.1921 31.6136 31.9491 29.0249C33.0931 27.3739 33.9309 25.723 34.4621 24.0718C33.2498 23.715 32.1739 22.8829 31.2339 21.5753Z" fill="#FFFBEE"/>
<path d="M24.2863 6.26061C25.1447 5.42851 25.778 4.51703 26.1868 3.52658C26.5816 2.53599 26.7787 1.63769 26.7787 0.831889C26.7787 0.77922 26.7758 0.713088 26.7684 0.633771C26.7623 0.554523 26.7586 0.488669 26.7586 0.435791C26.7449 0.396098 26.728 0.323443 26.7077 0.217896C26.6873 0.112348 26.6704 0.0396931 26.6564 0C24.2591 0.541824 22.5564 1.51916 21.5484 2.9325C20.527 4.35902 19.9955 6.05611 19.9546 8.02411C20.8673 7.94479 21.5753 7.83272 22.0795 7.68734C22.8156 7.44953 23.5503 6.97384 24.2863 6.26061Z" fill="#FFFBEE"/>
</g>
<defs>
<clipPath id="clip0">
<rect width="34" height="32.968" fill="white"/>
</clipPath>
</defs>
</svg>
