<svg width="145" height="32" viewBox="0 0 145 32" fill="none" xmlns="http://www.w3.org/2000/svg">
<path d="M57.9526 25C57.8566 25 57.7726 24.964 57.7006 24.892C57.6286 24.82 57.5926 24.736 57.5926 24.64C57.5926 24.544 57.5986 24.478 57.6106 24.442L62.0746 12.796C62.1706 12.532 62.3626 12.4 62.6506 12.4H63.8746C64.1626 12.4 64.3546 12.532 64.4506 12.796L68.8966 24.442L68.9326 24.64C68.9326 24.736 68.8966 24.82 68.8246 24.892C68.7526 24.964 68.6686 25 68.5726 25H67.6546C67.5226 25 67.4206 24.97 67.3486 24.91C67.2766 24.838 67.2286 24.766 67.2046 24.694L66.2146 22.138H60.3106L59.3206 24.694C59.2966 24.766 59.2426 24.838 59.1586 24.91C59.0866 24.97 58.9906 25 58.8706 25H57.9526ZM65.6926 20.59L63.2626 14.2L60.8326 20.59H65.6926ZM71.5952 28.42C71.4752 28.42 71.3732 28.378 71.2892 28.294C71.2172 28.222 71.1812 28.126 71.1812 28.006V16.054C71.1812 15.934 71.2172 15.838 71.2892 15.766C71.3732 15.682 71.4752 15.64 71.5952 15.64H72.4232C72.5432 15.64 72.6392 15.682 72.7112 15.766C72.7952 15.838 72.8372 15.934 72.8372 16.054V16.846C73.5092 15.922 74.4932 15.46 75.7892 15.46C77.0492 15.46 77.9912 15.856 78.6152 16.648C79.2512 17.44 79.5932 18.46 79.6412 19.708C79.6532 19.84 79.6592 20.044 79.6592 20.32C79.6592 20.596 79.6532 20.8 79.6412 20.932C79.5932 22.168 79.2512 23.188 78.6152 23.992C77.9792 24.784 77.0372 25.18 75.7892 25.18C74.5412 25.18 73.5692 24.73 72.8732 23.83V28.006C72.8732 28.126 72.8372 28.222 72.7652 28.294C72.6932 28.378 72.5972 28.42 72.4772 28.42H71.5952ZM75.4112 23.722C76.2632 23.722 76.8812 23.458 77.2652 22.93C77.6612 22.402 77.8772 21.706 77.9132 20.842C77.9252 20.722 77.9312 20.548 77.9312 20.32C77.9312 18.052 77.0912 16.918 75.4112 16.918C74.5832 16.918 73.9592 17.194 73.5392 17.746C73.1312 18.286 72.9092 18.934 72.8732 19.69L72.8552 20.374L72.8732 21.076C72.8972 21.784 73.1252 22.402 73.5572 22.93C73.9892 23.458 74.6072 23.722 75.4112 23.722ZM82.8578 28.42C82.7378 28.42 82.6358 28.378 82.5518 28.294C82.4798 28.222 82.4438 28.126 82.4438 28.006V16.054C82.4438 15.934 82.4798 15.838 82.5518 15.766C82.6358 15.682 82.7378 15.64 82.8578 15.64H83.6858C83.8058 15.64 83.9018 15.682 83.9738 15.766C84.0578 15.838 84.0998 15.934 84.0998 16.054V16.846C84.7718 15.922 85.7558 15.46 87.0518 15.46C88.3118 15.46 89.2538 15.856 89.8778 16.648C90.5138 17.44 90.8558 18.46 90.9038 19.708C90.9158 19.84 90.9218 20.044 90.9218 20.32C90.9218 20.596 90.9158 20.8 90.9038 20.932C90.8558 22.168 90.5138 23.188 89.8778 23.992C89.2418 24.784 88.2998 25.18 87.0518 25.18C85.8038 25.18 84.8318 24.73 84.1358 23.83V28.006C84.1358 28.126 84.0998 28.222 84.0278 28.294C83.9558 28.378 83.8598 28.42 83.7398 28.42H82.8578ZM86.6738 23.722C87.5258 23.722 88.1438 23.458 88.5278 22.93C88.9238 22.402 89.1398 21.706 89.1758 20.842C89.1878 20.722 89.1938 20.548 89.1938 20.32C89.1938 18.052 88.3538 16.918 86.6738 16.918C85.8458 16.918 85.2218 17.194 84.8018 17.746C84.3938 18.286 84.1718 18.934 84.1358 19.69L84.1178 20.374L84.1358 21.076C84.1598 21.784 84.3878 22.402 84.8198 22.93C85.2518 23.458 85.8698 23.722 86.6738 23.722ZM102.925 25.18C101.929 25.18 101.065 25.024 100.333 24.712C99.6126 24.4 99.0606 23.992 98.6766 23.488C98.2926 22.972 98.0886 22.42 98.0646 21.832C98.0646 21.736 98.1006 21.652 98.1726 21.58C98.2566 21.496 98.3526 21.454 98.4606 21.454H99.3786C99.6066 21.454 99.7626 21.574 99.8466 21.814C99.9546 22.318 100.261 22.75 100.765 23.11C101.281 23.47 102.001 23.65 102.925 23.65C103.921 23.65 104.671 23.476 105.175 23.128C105.679 22.768 105.931 22.27 105.931 21.634C105.931 21.226 105.805 20.896 105.553 20.644C105.313 20.392 104.953 20.17 104.473 19.978C103.993 19.786 103.273 19.546 102.313 19.258C101.377 18.994 100.633 18.712 100.081 18.412C99.5286 18.112 99.1146 17.74 98.8386 17.296C98.5626 16.852 98.4246 16.294 98.4246 15.622C98.4246 14.974 98.5986 14.392 98.9466 13.876C99.3066 13.36 99.8166 12.958 100.477 12.67C101.137 12.37 101.923 12.22 102.835 12.22C103.771 12.22 104.575 12.388 105.247 12.724C105.919 13.048 106.429 13.462 106.777 13.966C107.125 14.47 107.311 14.974 107.335 15.478C107.335 15.574 107.299 15.658 107.227 15.73C107.167 15.802 107.077 15.838 106.957 15.838H106.003C105.751 15.838 105.595 15.724 105.535 15.496C105.463 14.992 105.181 14.578 104.689 14.254C104.197 13.918 103.579 13.75 102.835 13.75C102.019 13.75 101.377 13.906 100.909 14.218C100.441 14.53 100.207 14.992 100.207 15.604C100.207 16.012 100.315 16.348 100.531 16.612C100.759 16.876 101.101 17.11 101.557 17.314C102.013 17.506 102.679 17.728 103.555 17.98C104.575 18.256 105.379 18.544 105.967 18.844C106.555 19.132 106.993 19.498 107.281 19.942C107.569 20.374 107.713 20.926 107.713 21.598C107.713 22.714 107.281 23.59 106.417 24.226C105.553 24.862 104.389 25.18 102.925 25.18ZM114.032 25C112.136 25 111.188 23.944 111.188 21.832V17.08H109.784C109.664 17.08 109.562 17.044 109.478 16.972C109.406 16.888 109.37 16.786 109.37 16.666V16.054C109.37 15.934 109.406 15.838 109.478 15.766C109.562 15.682 109.664 15.64 109.784 15.64H111.188V12.634C111.188 12.514 111.224 12.418 111.296 12.346C111.38 12.262 111.482 12.22 111.602 12.22H112.448C112.568 12.22 112.664 12.262 112.736 12.346C112.82 12.418 112.862 12.514 112.862 12.634V15.64H115.094C115.214 15.64 115.31 15.682 115.382 15.766C115.466 15.838 115.508 15.934 115.508 16.054V16.666C115.508 16.786 115.466 16.888 115.382 16.972C115.31 17.044 115.214 17.08 115.094 17.08H112.862V21.706C112.862 22.306 112.964 22.762 113.168 23.074C113.372 23.374 113.708 23.524 114.176 23.524H115.274C115.394 23.524 115.49 23.566 115.562 23.65C115.646 23.722 115.688 23.818 115.688 23.938V24.586C115.688 24.706 115.646 24.808 115.562 24.892C115.49 24.964 115.394 25 115.274 25H114.032ZM121.783 25.18C120.463 25.18 119.437 24.808 118.705 24.064C117.985 23.32 117.601 22.33 117.553 21.094L117.535 20.32L117.553 19.546C117.601 18.322 117.991 17.338 118.723 16.594C119.455 15.838 120.475 15.46 121.783 15.46C123.091 15.46 124.111 15.838 124.843 16.594C125.575 17.338 125.965 18.322 126.013 19.546C126.025 19.678 126.031 19.936 126.031 20.32C126.031 20.704 126.025 20.962 126.013 21.094C125.965 22.33 125.575 23.32 124.843 24.064C124.123 24.808 123.103 25.18 121.783 25.18ZM121.783 23.794C122.539 23.794 123.133 23.554 123.565 23.074C124.009 22.594 124.249 21.904 124.285 21.004C124.297 20.884 124.303 20.656 124.303 20.32C124.303 19.984 124.297 19.756 124.285 19.636C124.249 18.736 124.009 18.046 123.565 17.566C123.133 17.086 122.539 16.846 121.783 16.846C121.027 16.846 120.427 17.086 119.983 17.566C119.539 18.046 119.305 18.736 119.281 19.636L119.263 20.32L119.281 21.004C119.305 21.904 119.539 22.594 119.983 23.074C120.427 23.554 121.027 23.794 121.783 23.794ZM129.239 25C129.119 25 129.017 24.964 128.933 24.892C128.861 24.808 128.825 24.706 128.825 24.586V16.072C128.825 15.952 128.861 15.85 128.933 15.766C129.017 15.682 129.119 15.64 129.239 15.64H130.067C130.187 15.64 130.289 15.682 130.373 15.766C130.457 15.85 130.499 15.952 130.499 16.072V16.864C130.991 16.048 131.831 15.64 133.019 15.64H133.721C133.841 15.64 133.937 15.682 134.009 15.766C134.093 15.838 134.135 15.934 134.135 16.054V16.792C134.135 16.912 134.093 17.008 134.009 17.08C133.937 17.152 133.841 17.188 133.721 17.188H132.641C131.993 17.188 131.483 17.38 131.111 17.764C130.739 18.136 130.553 18.646 130.553 19.294V24.586C130.553 24.706 130.511 24.808 130.427 24.892C130.343 24.964 130.241 25 130.121 25H129.239ZM139.771 25.18C138.535 25.18 137.545 24.802 136.801 24.046C136.069 23.278 135.667 22.234 135.595 20.914L135.577 20.302L135.595 19.708C135.679 18.412 136.087 17.38 136.819 16.612C137.563 15.844 138.541 15.46 139.753 15.46C141.085 15.46 142.117 15.886 142.849 16.738C143.581 17.578 143.947 18.718 143.947 20.158V20.464C143.947 20.584 143.905 20.686 143.821 20.77C143.749 20.842 143.653 20.878 143.533 20.878H137.305V21.04C137.341 21.82 137.575 22.486 138.007 23.038C138.451 23.578 139.033 23.848 139.753 23.848C140.305 23.848 140.755 23.74 141.103 23.524C141.463 23.296 141.727 23.062 141.895 22.822C142.003 22.678 142.081 22.594 142.129 22.57C142.189 22.534 142.291 22.516 142.435 22.516H143.317C143.425 22.516 143.515 22.546 143.587 22.606C143.659 22.666 143.695 22.75 143.695 22.858C143.695 23.122 143.527 23.44 143.191 23.812C142.867 24.184 142.405 24.508 141.805 24.784C141.217 25.048 140.539 25.18 139.771 25.18ZM142.237 19.636V19.582C142.237 18.754 142.009 18.082 141.553 17.566C141.109 17.038 140.509 16.774 139.753 16.774C138.997 16.774 138.397 17.038 137.953 17.566C137.521 18.082 137.305 18.754 137.305 19.582V19.636H142.237Z" fill="#FFFBEE"/>
<path d="M27.484 20.9417C26.4601 19.6726 25.9486 18.2428 25.9486 16.6535C25.9486 15.2048 26.4314 13.8776 27.395 12.6727C27.9142 12.0188 28.7601 11.2627 29.9322 10.4035C29.1608 9.58328 28.3894 8.94226 27.6174 8.48061C26.2229 7.64743 24.6426 7.23083 22.8773 7.23083C21.8242 7.23083 20.5405 7.44866 19.0276 7.88485C17.5735 8.32071 16.5126 8.53887 15.8453 8.53887C15.3406 8.53887 14.3171 8.34671 12.7741 7.96191C11.2163 7.57724 9.90325 7.38508 8.83506 7.38508C6.28323 7.38508 4.17648 8.30825 2.51488 10.1542C0.838398 12.026 0 14.4233 0 17.3464C0 20.4489 1.09071 23.6729 3.27151 27.019C5.48194 30.3395 7.71489 31.9999 9.96997 31.9999C10.7266 31.9999 11.7059 31.7819 12.9074 31.346C14.1093 30.9233 15.1626 30.7115 16.0678 30.7115C17.0318 30.7115 18.1521 30.9166 19.428 31.3266C20.7779 31.7365 21.8167 31.9416 22.5436 31.9416C24.4425 31.9416 26.3493 30.6852 28.2629 28.1725C29.5089 26.5701 30.4214 24.9676 31 23.365C29.6796 23.0186 28.5077 22.2109 27.484 20.9417Z" fill="#FFFBEE"/>
<path d="M19.9172 6.07673C20.8521 5.26907 21.5419 4.38436 21.9872 3.423C22.4172 2.4615 22.6319 1.58958 22.6319 0.807455C22.6319 0.756332 22.6287 0.692143 22.6206 0.615156C22.6139 0.538236 22.61 0.474316 22.61 0.422991C22.595 0.384464 22.5766 0.313943 22.5545 0.211496C22.5323 0.109048 22.5138 0.0385272 22.4986 0C19.8875 0.52591 18.0331 1.47454 16.9351 2.84637C15.8227 4.23099 15.2438 5.87823 15.1992 7.78843C16.1933 7.71144 16.9644 7.60266 17.5136 7.46155C18.3154 7.23072 19.1156 6.769 19.9172 6.07673Z" fill="#FFFBEE"/>
</svg>
