<svg width="49" height="47" viewBox="0 0 49 47" fill="none" xmlns="http://www.w3.org/2000/svg">
<path d="M49 23.5C49 10.5199 38.0324 0 24.5 0C10.9676 0 0 10.5199 0 23.5C0 36.4801 10.9676 47 24.5 47C24.6436 47 24.7871 47 24.9307 46.9908V28.7049H19.667V22.8207H24.9307V18.4879C24.9307 13.4666 28.1271 10.7311 32.7975 10.7311C35.0369 10.7311 36.9605 10.8871 37.5156 10.9605V16.2113H34.3C31.7639 16.2113 31.2662 17.368 31.2662 19.0662V22.8115H37.3434L36.549 28.6957H31.2662V46.0912C41.5064 43.273 49 34.2311 49 23.5Z" fill="#FFFBEE"/>
</svg>
