<svg width="147" height="29" viewBox="0 0 147 29" fill="none" xmlns="http://www.w3.org/2000/svg">
<path d="M49.3955 21.18C47.8235 21.18 46.5995 20.754 45.7235 19.902C44.8595 19.038 44.3975 17.862 44.3375 16.374C44.3255 16.014 44.3195 15.45 44.3195 14.682C44.3195 13.902 44.3255 13.338 44.3375 12.99C44.3975 11.514 44.8655 10.35 45.7415 9.498C46.6175 8.646 47.8355 8.22 49.3955 8.22C50.4515 8.22 51.3455 8.412 52.0775 8.796C52.8215 9.168 53.3795 9.624 53.7515 10.164C54.1235 10.704 54.3215 11.208 54.3455 11.676V11.712C54.3455 11.808 54.3095 11.886 54.2375 11.946C54.1655 12.006 54.0755 12.036 53.9675 12.036H52.9055C52.7855 12.036 52.6955 12.018 52.6355 11.982C52.5875 11.934 52.5395 11.844 52.4915 11.712C52.3115 11.172 51.9635 10.71 51.4475 10.326C50.9435 9.942 50.2595 9.75 49.3955 9.75C48.3995 9.75 47.6195 10.02 47.0555 10.56C46.4915 11.1 46.1855 11.94 46.1375 13.08C46.1255 13.428 46.1195 13.962 46.1195 14.682C46.1195 15.39 46.1255 15.924 46.1375 16.284C46.1855 17.436 46.4915 18.288 47.0555 18.84C47.6195 19.38 48.3995 19.65 49.3955 19.65C50.4035 19.65 51.2075 19.374 51.8075 18.822C52.4075 18.27 52.7075 17.442 52.7075 16.338V15.582H50.0075C49.8875 15.582 49.7855 15.546 49.7015 15.474C49.6295 15.39 49.5935 15.282 49.5935 15.15V14.574C49.5935 14.454 49.6295 14.352 49.7015 14.268C49.7855 14.184 49.8875 14.142 50.0075 14.142H54.0755C54.1955 14.142 54.2915 14.184 54.3635 14.268C54.4475 14.34 54.4895 14.442 54.4895 14.574V16.302C54.4895 17.286 54.2855 18.144 53.8775 18.876C53.4695 19.608 52.8815 20.178 52.1135 20.586C51.3455 20.982 50.4395 21.18 49.3955 21.18ZM61.1974 21.18C59.8774 21.18 58.8514 20.808 58.1194 20.064C57.3994 19.32 57.0154 18.33 56.9674 17.094L56.9494 16.32L56.9674 15.546C57.0154 14.322 57.4054 13.338 58.1374 12.594C58.8694 11.838 59.8894 11.46 61.1974 11.46C62.5054 11.46 63.5254 11.838 64.2574 12.594C64.9894 13.338 65.3794 14.322 65.4274 15.546C65.4394 15.678 65.4454 15.936 65.4454 16.32C65.4454 16.704 65.4394 16.962 65.4274 17.094C65.3794 18.33 64.9894 19.32 64.2574 20.064C63.5374 20.808 62.5174 21.18 61.1974 21.18ZM61.1974 19.794C61.9534 19.794 62.5474 19.554 62.9794 19.074C63.4234 18.594 63.6634 17.904 63.6994 17.004C63.7114 16.884 63.7174 16.656 63.7174 16.32C63.7174 15.984 63.7114 15.756 63.6994 15.636C63.6634 14.736 63.4234 14.046 62.9794 13.566C62.5474 13.086 61.9534 12.846 61.1974 12.846C60.4414 12.846 59.8414 13.086 59.3974 13.566C58.9534 14.046 58.7194 14.736 58.6954 15.636L58.6774 16.32L58.6954 17.004C58.7194 17.904 58.9534 18.594 59.3974 19.074C59.8414 19.554 60.4414 19.794 61.1974 19.794ZM72.0733 21.18C70.7533 21.18 69.7273 20.808 68.9953 20.064C68.2753 19.32 67.8913 18.33 67.8433 17.094L67.8253 16.32L67.8433 15.546C67.8913 14.322 68.2813 13.338 69.0133 12.594C69.7453 11.838 70.7653 11.46 72.0733 11.46C73.3813 11.46 74.4013 11.838 75.1333 12.594C75.8653 13.338 76.2553 14.322 76.3033 15.546C76.3153 15.678 76.3213 15.936 76.3213 16.32C76.3213 16.704 76.3153 16.962 76.3033 17.094C76.2553 18.33 75.8653 19.32 75.1333 20.064C74.4133 20.808 73.3933 21.18 72.0733 21.18ZM72.0733 19.794C72.8293 19.794 73.4233 19.554 73.8553 19.074C74.2993 18.594 74.5393 17.904 74.5753 17.004C74.5873 16.884 74.5933 16.656 74.5933 16.32C74.5933 15.984 74.5873 15.756 74.5753 15.636C74.5393 14.736 74.2993 14.046 73.8553 13.566C73.4233 13.086 72.8293 12.846 72.0733 12.846C71.3173 12.846 70.7173 13.086 70.2733 13.566C69.8293 14.046 69.5953 14.736 69.5713 15.636L69.5533 16.32L69.5713 17.004C69.5953 17.904 69.8293 18.594 70.2733 19.074C70.7173 19.554 71.3173 19.794 72.0733 19.794ZM82.9493 24.96C81.9653 24.96 81.1733 24.792 80.5733 24.456C79.9733 24.132 79.5473 23.76 79.2953 23.34C79.0433 22.92 78.9053 22.542 78.8813 22.206C78.8693 22.086 78.9053 21.984 78.9893 21.9C79.0853 21.816 79.1873 21.774 79.2953 21.774H80.1593C80.2673 21.774 80.3573 21.798 80.4293 21.846C80.5013 21.906 80.5613 22.008 80.6093 22.152C80.7533 22.536 80.9873 22.866 81.3113 23.142C81.6473 23.43 82.1633 23.574 82.8593 23.574C83.7473 23.574 84.4013 23.382 84.8213 22.998C85.2413 22.626 85.4513 21.96 85.4513 21V19.776C85.1393 20.172 84.7433 20.49 84.2633 20.73C83.7833 20.958 83.2133 21.072 82.5533 21.072C81.2813 21.072 80.3273 20.67 79.6913 19.866C79.0673 19.05 78.7373 18.018 78.7013 16.77L78.6833 16.266L78.7013 15.78C78.7373 14.544 79.0733 13.518 79.7093 12.702C80.3453 11.874 81.2933 11.46 82.5533 11.46C83.8133 11.46 84.7973 11.922 85.5053 12.846V12.072C85.5053 11.952 85.5413 11.85 85.6133 11.766C85.6973 11.682 85.7993 11.64 85.9193 11.64H86.7473C86.8673 11.64 86.9693 11.682 87.0533 11.766C87.1373 11.85 87.1793 11.952 87.1793 12.072V20.802C87.1793 23.574 85.7693 24.96 82.9493 24.96ZM82.9133 19.632C83.7293 19.632 84.3473 19.362 84.7673 18.822C85.1873 18.282 85.4153 17.64 85.4513 16.896C85.4633 16.788 85.4693 16.578 85.4693 16.266C85.4693 15.966 85.4633 15.762 85.4513 15.654C85.4153 14.91 85.1873 14.268 84.7673 13.728C84.3593 13.188 83.7413 12.918 82.9133 12.918C82.0613 12.918 81.4433 13.182 81.0593 13.71C80.6753 14.238 80.4653 14.934 80.4293 15.798L80.4113 16.266L80.4293 16.752C80.4653 17.604 80.6753 18.3 81.0593 18.84C81.4433 19.368 82.0613 19.632 82.9133 19.632ZM90.8275 21C90.7075 21 90.6055 20.964 90.5215 20.892C90.4495 20.808 90.4135 20.706 90.4135 20.586V8.634C90.4135 8.514 90.4495 8.418 90.5215 8.346C90.6055 8.262 90.7075 8.22 90.8275 8.22H91.6735C91.7935 8.22 91.8895 8.262 91.9615 8.346C92.0455 8.418 92.0875 8.514 92.0875 8.634V20.586C92.0875 20.706 92.0455 20.808 91.9615 20.892C91.8895 20.964 91.7935 21 91.6735 21H90.8275ZM99.0565 21.18C97.8205 21.18 96.8305 20.802 96.0865 20.046C95.3545 19.278 94.9525 18.234 94.8805 16.914L94.8625 16.302L94.8805 15.708C94.9645 14.412 95.3725 13.38 96.1045 12.612C96.8485 11.844 97.8265 11.46 99.0385 11.46C100.37 11.46 101.402 11.886 102.134 12.738C102.866 13.578 103.232 14.718 103.232 16.158V16.464C103.232 16.584 103.19 16.686 103.106 16.77C103.034 16.842 102.938 16.878 102.818 16.878H96.5905V17.04C96.6265 17.82 96.8605 18.486 97.2925 19.038C97.7365 19.578 98.3185 19.848 99.0385 19.848C99.5905 19.848 100.04 19.74 100.388 19.524C100.748 19.296 101.012 19.062 101.18 18.822C101.288 18.678 101.366 18.594 101.414 18.57C101.474 18.534 101.576 18.516 101.72 18.516H102.602C102.71 18.516 102.8 18.546 102.872 18.606C102.944 18.666 102.98 18.75 102.98 18.858C102.98 19.122 102.812 19.44 102.476 19.812C102.152 20.184 101.69 20.508 101.09 20.784C100.502 21.048 99.8245 21.18 99.0565 21.18ZM101.522 15.636V15.582C101.522 14.754 101.294 14.082 100.838 13.566C100.394 13.038 99.7945 12.774 99.0385 12.774C98.2825 12.774 97.6825 13.038 97.2385 13.566C96.8065 14.082 96.5905 14.754 96.5905 15.582V15.636H101.522ZM111.525 21C111.405 21 111.303 20.964 111.219 20.892C111.147 20.808 111.111 20.706 111.111 20.586V8.832C111.111 8.7 111.147 8.598 111.219 8.526C111.303 8.442 111.405 8.4 111.525 8.4H116.097C117.453 8.4 118.521 8.73 119.301 9.39C120.081 10.05 120.471 11.004 120.471 12.252C120.471 13.5 120.081 14.454 119.301 15.114C118.533 15.762 117.465 16.086 116.097 16.086H112.911V20.586C112.911 20.706 112.869 20.808 112.785 20.892C112.701 20.964 112.599 21 112.479 21H111.525ZM116.007 14.574C116.883 14.574 117.543 14.376 117.987 13.98C118.443 13.584 118.671 13.008 118.671 12.252C118.671 11.496 118.449 10.92 118.005 10.524C117.561 10.116 116.895 9.912 116.007 9.912H112.893V14.574H116.007ZM123.398 21C123.278 21 123.176 20.964 123.092 20.892C123.02 20.808 122.984 20.706 122.984 20.586V8.634C122.984 8.514 123.02 8.418 123.092 8.346C123.176 8.262 123.278 8.22 123.398 8.22H124.244C124.364 8.22 124.46 8.262 124.532 8.346C124.616 8.418 124.658 8.514 124.658 8.634V20.586C124.658 20.706 124.616 20.808 124.532 20.892C124.46 20.964 124.364 21 124.244 21H123.398ZM130.493 21.18C129.905 21.18 129.359 21.06 128.855 20.82C128.351 20.58 127.949 20.256 127.649 19.848C127.361 19.428 127.217 18.966 127.217 18.462C127.217 17.67 127.541 17.022 128.189 16.518C128.849 16.002 129.737 15.666 130.853 15.51L133.535 15.132V14.61C133.535 13.386 132.833 12.774 131.429 12.774C130.901 12.774 130.469 12.888 130.133 13.116C129.797 13.332 129.545 13.59 129.377 13.89C129.341 13.998 129.293 14.076 129.233 14.124C129.185 14.172 129.113 14.196 129.017 14.196H128.243C128.135 14.196 128.039 14.16 127.955 14.088C127.883 14.004 127.847 13.908 127.847 13.8C127.859 13.512 127.991 13.188 128.243 12.828C128.507 12.456 128.909 12.138 129.449 11.874C129.989 11.598 130.655 11.46 131.447 11.46C132.791 11.46 133.757 11.778 134.345 12.414C134.933 13.038 135.227 13.818 135.227 14.754V20.586C135.227 20.706 135.185 20.808 135.101 20.892C135.029 20.964 134.933 21 134.813 21H133.985C133.865 21 133.763 20.964 133.679 20.892C133.607 20.808 133.571 20.706 133.571 20.586V19.812C133.307 20.196 132.923 20.52 132.419 20.784C131.915 21.048 131.273 21.18 130.493 21.18ZM130.871 19.83C131.651 19.83 132.287 19.578 132.779 19.074C133.283 18.558 133.535 17.82 133.535 16.86V16.356L131.447 16.662C130.595 16.782 129.953 16.986 129.521 17.274C129.089 17.55 128.873 17.904 128.873 18.336C128.873 18.816 129.071 19.188 129.467 19.452C129.863 19.704 130.331 19.83 130.871 19.83ZM139.799 24.42C139.703 24.42 139.619 24.384 139.547 24.312C139.475 24.24 139.439 24.156 139.439 24.06C139.439 23.976 139.469 23.868 139.529 23.736L140.915 20.442L137.477 12.324C137.417 12.168 137.387 12.066 137.387 12.018C137.387 11.91 137.423 11.82 137.495 11.748C137.567 11.676 137.657 11.64 137.765 11.64H138.647C138.839 11.64 138.983 11.742 139.079 11.946L141.815 18.498L144.623 11.946C144.719 11.742 144.869 11.64 145.073 11.64H145.919C146.027 11.64 146.117 11.676 146.189 11.748C146.261 11.82 146.297 11.904 146.297 12C146.297 12.036 146.267 12.144 146.207 12.324L141.095 24.114C140.999 24.318 140.849 24.42 140.645 24.42H139.799Z" fill="#FFFBEE"/>
<g clip-path="url(#clip0)">
<path d="M6.98433 0.46385C5.7324 -0.16324 4.26248 -0.14874 3.01855 0.472912L17.5977 12.6613L22.4955 8.22272L6.98433 0.46385Z" fill="#FFFBEE"/>
<path d="M1.56095 1.71979C1.20497 2.2472 1.00098 2.85072 1.00098 3.4905V25.5039C1.00098 26.1237 1.18697 26.7146 1.52295 27.2311L16.1841 13.9444L1.56095 1.71979Z" fill="#FFFBEE"/>
<path d="M28.9888 11.4705L24.3171 9.13434L19.0674 13.8901L25.501 19.2675L28.9908 17.5221C30.2468 16.8914 30.9987 15.7605 30.9987 14.4954C30.9967 13.2304 30.2468 12.0994 28.9888 11.4705Z" fill="#FFFBEE"/>
<path d="M17.6543 15.1732L2.95312 28.4961C3.59109 28.826 4.29105 29 4.99501 29C5.67497 29 6.35893 28.8441 6.9849 28.5306L23.658 20.1917L17.6543 15.1732Z" fill="#FFFBEE"/>
</g>
<defs>
<clipPath id="clip0">
<rect width="32" height="29" fill="white"/>
</clipPath>
</defs>
</svg>
