<svg width="32" height="29" viewBox="0 0 32 29" fill="none" xmlns="http://www.w3.org/2000/svg">
<g clip-path="url(#clip0)">
<path d="M6.98433 0.463789C5.7324 -0.163301 4.26248 -0.148801 3.01855 0.472851L17.5977 12.6612L22.4955 8.22266L6.98433 0.463789Z" fill="#FFFBEE"/>
<path d="M1.56095 1.71973C1.20497 2.24713 1.00098 2.85066 1.00098 3.49044V25.5038C1.00098 26.1237 1.18697 26.7145 1.52295 27.231L16.1841 13.9443L1.56095 1.71973Z" fill="#FFFBEE"/>
<path d="M28.9893 11.4705L24.3176 9.13428L19.0679 13.89L25.5015 19.2674L28.9913 17.5221C30.2472 16.8913 30.9992 15.7604 30.9992 14.4954C30.9972 13.2303 30.2472 12.0994 28.9893 11.4705Z" fill="#FFFBEE"/>
<path d="M17.6538 15.1733L2.95264 28.4963C3.5906 28.8261 4.29056 29.0001 4.99452 29.0001C5.67448 29.0001 6.35844 28.8442 6.98441 28.5307L23.6575 20.1919L17.6538 15.1733Z" fill="#FFFBEE"/>
</g>
<defs>
<clipPath id="clip0">
<rect width="32" height="29" fill="white"/>
</clipPath>
</defs>
</svg>
