<svg width="49" height="47" viewBox="0 0 49 47" fill="none" xmlns="http://www.w3.org/2000/svg">
<path d="M29.1895 23.5C29.1895 25.9843 27.09 27.998 24.5 27.998C21.91 27.998 19.8105 25.9843 19.8105 23.5C19.8105 21.0157 21.91 19.002 24.5 19.002C27.09 19.002 29.1895 21.0157 29.1895 23.5Z" fill="#FFFBEE"/>
<path d="M35.467 15.5415C35.2416 14.9556 34.882 14.4252 34.4146 13.9899C33.9608 13.5417 33.4083 13.1967 32.797 12.9805C32.3013 12.7958 31.5566 12.576 30.185 12.5161C28.7012 12.4512 28.2564 12.4373 24.5 12.4373C20.7433 12.4373 20.2984 12.4509 18.815 12.5158C17.4434 12.576 16.6984 12.7958 16.203 12.9805C15.5918 13.1967 15.0389 13.5417 14.5854 13.9899C14.1181 14.4252 13.7585 14.9552 13.5327 15.5415C13.3401 16.017 13.111 16.7316 13.0486 18.0473C12.9809 19.4701 12.9663 19.8968 12.9663 23.5002C12.9663 27.1032 12.9809 27.53 13.0486 28.9532C13.111 30.2688 13.3401 30.9831 13.5327 31.4586C13.7585 32.0448 14.1177 32.5748 14.585 33.0102C15.0389 33.4584 15.5914 33.8033 16.2026 34.0196C16.6984 34.2046 17.4434 34.4244 18.815 34.4843C20.2984 34.5492 20.7429 34.5628 24.4997 34.5628C28.2568 34.5628 28.7016 34.5492 30.1846 34.4843C31.5563 34.4244 32.3013 34.2046 32.797 34.0196C34.024 33.5656 34.9937 32.6354 35.467 31.4586C35.6595 30.9831 35.8887 30.2688 35.9515 28.9532C36.0192 27.53 36.0334 27.1032 36.0334 23.5002C36.0334 19.8968 36.0192 19.4701 35.9515 18.0473C35.8891 16.7316 35.6599 16.017 35.467 15.5415ZM24.5 30.4291C20.51 30.4291 17.2756 27.327 17.2756 23.4999C17.2756 19.6727 20.51 16.5706 24.5 16.5706C28.4897 16.5706 31.7241 19.6727 31.7241 23.4999C31.7241 27.327 28.4897 30.4291 24.5 30.4291ZM32.0097 17.916C31.0774 17.916 30.3215 17.191 30.3215 16.2967C30.3215 15.4024 31.0774 14.6773 32.0097 14.6773C32.9421 14.6773 33.698 15.4024 33.698 16.2967C33.6976 17.191 32.9421 17.916 32.0097 17.916Z" fill="#FFFBEE"/>
<path d="M24.5 0C10.9711 0 0 10.5233 0 23.5C0 36.4767 10.9711 47 24.5 47C38.0289 47 49 36.4767 49 23.5C49 10.5233 38.0289 0 24.5 0ZM38.4835 29.0634C38.4155 30.4999 38.1773 31.4806 37.8297 32.339C37.0988 34.1517 35.6049 35.5846 33.7152 36.2856C32.8206 36.6191 31.7977 36.8471 30.3005 36.9127C28.8003 36.9784 28.321 36.9941 24.5004 36.9941C20.6794 36.9941 20.2005 36.9784 18.6999 36.9127C17.2026 36.8471 16.1798 36.6191 15.2852 36.2856C14.3461 35.9467 13.496 35.4157 12.7932 34.729C12.0777 34.0552 11.524 33.2394 11.1707 32.339C10.8231 31.4809 10.5849 30.4999 10.5169 29.0638C10.4477 27.6244 10.4316 27.1647 10.4316 23.5C10.4316 19.8353 10.4477 19.3756 10.5165 17.9366C10.5845 16.5001 10.8223 15.5194 11.17 14.661C11.5233 13.7606 12.0773 12.9448 12.7932 12.271C13.4956 11.5843 14.3461 11.0533 15.2848 10.7144C16.1798 10.3809 17.2023 10.1529 18.6999 10.0873C20.2001 10.0216 20.6794 10.0059 24.5 10.0059C28.3206 10.0059 28.7999 10.0216 30.3001 10.0876C31.7977 10.1529 32.8202 10.3809 33.7152 10.7141C34.6539 11.0529 35.5044 11.5843 36.2072 12.271C36.9227 12.9452 37.4767 13.7606 37.8297 14.661C38.1777 15.5194 38.4155 16.5001 38.4839 17.9366C38.5523 19.3756 38.5684 19.8353 38.5684 23.5C38.5684 27.1647 38.5523 27.6244 38.4835 29.0634Z" fill="#FFFBEE"/>
</svg>
