<svg width="126" height="41" viewBox="0 0 126 41" fill="none" xmlns="http://www.w3.org/2000/svg">
<path d="M49.575 35C49.4083 35 49.2667 34.95 49.15 34.85C49.05 34.7333 49 34.5917 49 34.425V19.725H44.2C44.0333 19.725 43.8917 19.675 43.775 19.575C43.675 19.4583 43.625 19.3167 43.625 19.15V18.1C43.625 17.9333 43.675 17.7917 43.775 17.675C43.8917 17.5583 44.0333 17.5 44.2 17.5H56.25C56.4333 17.5 56.575 17.5583 56.675 17.675C56.7917 17.775 56.85 17.9167 56.85 18.1V19.15C56.85 19.3167 56.7917 19.4583 56.675 19.575C56.5583 19.675 56.4167 19.725 56.25 19.725H51.475V34.425C51.475 34.5917 51.4167 34.7333 51.3 34.85C51.1833 34.95 51.0417 35 50.875 35H49.575ZM59.6293 19.575C59.4626 19.575 59.321 19.525 59.2043 19.425C59.1043 19.3083 59.0543 19.1667 59.0543 19V17.65C59.0543 17.4833 59.1043 17.3417 59.2043 17.225C59.321 17.1083 59.4626 17.05 59.6293 17.05H61.2043C61.371 17.05 61.5126 17.1083 61.6293 17.225C61.746 17.3417 61.8043 17.4833 61.8043 17.65V19C61.8043 19.1667 61.746 19.3083 61.6293 19.425C61.5126 19.525 61.371 19.575 61.2043 19.575H59.6293ZM59.8293 35C59.6626 35 59.521 34.95 59.4043 34.85C59.3043 34.7333 59.2543 34.5917 59.2543 34.425V22.575C59.2543 22.4083 59.3043 22.275 59.4043 22.175C59.521 22.0583 59.6626 22 59.8293 22H61.0293C61.196 22 61.3293 22.0583 61.4293 22.175C61.546 22.275 61.6043 22.4083 61.6043 22.575V34.425C61.6043 34.5917 61.546 34.7333 61.4293 34.85C61.3293 34.95 61.196 35 61.0293 35H59.8293ZM70.559 35.25C68.7757 35.25 67.3757 34.75 66.359 33.75C65.359 32.7333 64.8257 31.3167 64.759 29.5L64.734 28.5L64.759 27.5C64.8257 25.6833 65.359 24.275 66.359 23.275C67.3757 22.2583 68.7757 21.75 70.559 21.75C71.759 21.75 72.7757 21.9667 73.609 22.4C74.4423 22.8333 75.059 23.3667 75.459 24C75.8757 24.6333 76.1007 25.2667 76.134 25.9C76.1507 26.0667 76.1007 26.2 75.984 26.3C75.8673 26.4 75.7257 26.45 75.559 26.45H74.359C74.1923 26.45 74.0673 26.4167 73.984 26.35C73.9007 26.2833 73.8173 26.15 73.734 25.95C73.4507 25.15 73.0507 24.5833 72.534 24.25C72.0173 23.9 71.3673 23.725 70.584 23.725C69.5507 23.725 68.7257 24.05 68.109 24.7C67.509 25.3333 67.184 26.3083 67.134 27.625L67.109 28.525L67.134 29.375C67.184 30.7083 67.509 31.6917 68.109 32.325C68.709 32.9583 69.534 33.275 70.584 33.275C71.3673 33.275 72.0173 33.1083 72.534 32.775C73.0507 32.425 73.4507 31.85 73.734 31.05C73.8173 30.85 73.9007 30.7167 73.984 30.65C74.0673 30.5667 74.1923 30.525 74.359 30.525H75.559C75.7257 30.525 75.8673 30.5833 75.984 30.7C76.1007 30.8 76.1507 30.9333 76.134 31.1C76.1007 31.7167 75.8757 32.35 75.459 33C75.059 33.6333 74.4423 34.1667 73.609 34.6C72.7923 35.0333 71.7757 35.25 70.559 35.25ZM79.7029 35C79.5363 35 79.3946 34.95 79.2779 34.85C79.1779 34.7333 79.1279 34.5917 79.1279 34.425V17.825C79.1279 17.6583 79.1779 17.525 79.2779 17.425C79.3946 17.3083 79.5363 17.25 79.7029 17.25H80.8779C81.0446 17.25 81.1779 17.3083 81.2779 17.425C81.3946 17.525 81.4529 17.6583 81.4529 17.825V26.525L86.3779 22.425C86.4279 22.3917 86.5113 22.325 86.6279 22.225C86.7446 22.1417 86.8529 22.0833 86.9529 22.05C87.0696 22.0167 87.2113 22 87.3779 22H88.7029C88.8529 22 88.9779 22.05 89.0779 22.15C89.1779 22.25 89.2279 22.375 89.2279 22.525C89.2279 22.7083 89.1279 22.8667 88.9279 23L83.1529 27.8L89.5529 34.025C89.7529 34.1917 89.8529 34.3417 89.8529 34.475C89.8529 34.625 89.8029 34.75 89.7029 34.85C89.6029 34.95 89.4779 35 89.3279 35H88.0279C87.7779 35 87.5946 34.975 87.4779 34.925C87.3779 34.875 87.2279 34.7583 87.0279 34.575L81.4529 29.25V34.425C81.4529 34.5917 81.3946 34.7333 81.2779 34.85C81.1779 34.95 81.0446 35 80.8779 35H79.7029ZM96.5832 35.25C94.8665 35.25 93.4915 34.725 92.4582 33.675C91.4415 32.6083 90.8832 31.1583 90.7832 29.325L90.7582 28.475L90.7832 27.65C90.8999 25.85 91.4665 24.4167 92.4832 23.35C93.5165 22.2833 94.8749 21.75 96.5582 21.75C98.4082 21.75 99.8415 22.3417 100.858 23.525C101.875 24.6917 102.383 26.275 102.383 28.275V28.7C102.383 28.8667 102.325 29.0083 102.208 29.125C102.108 29.225 101.975 29.275 101.808 29.275H93.1582V29.5C93.2082 30.5833 93.5332 31.5083 94.1332 32.275C94.7499 33.025 95.5582 33.4 96.5582 33.4C97.3249 33.4 97.9499 33.25 98.4332 32.95C98.9332 32.6333 99.2999 32.3083 99.5332 31.975C99.6832 31.775 99.7915 31.6583 99.8582 31.625C99.9415 31.575 100.083 31.55 100.283 31.55H101.508C101.658 31.55 101.783 31.5917 101.883 31.675C101.983 31.7583 102.033 31.875 102.033 32.025C102.033 32.3917 101.8 32.8333 101.333 33.35C100.883 33.8667 100.242 34.3167 99.4082 34.7C98.5915 35.0667 97.6499 35.25 96.5832 35.25ZM100.008 27.55V27.475C100.008 26.325 99.6915 25.3917 99.0582 24.675C98.4415 23.9417 97.6082 23.575 96.5582 23.575C95.5082 23.575 94.6749 23.9417 94.0582 24.675C93.4582 25.3917 93.1582 26.325 93.1582 27.475V27.55H100.008ZM110.374 35C107.741 35 106.424 33.5333 106.424 30.6V24H104.474C104.308 24 104.166 23.95 104.049 23.85C103.949 23.7333 103.899 23.5917 103.899 23.425V22.575C103.899 22.4083 103.949 22.275 104.049 22.175C104.166 22.0583 104.308 22 104.474 22H106.424V17.825C106.424 17.6583 106.474 17.525 106.574 17.425C106.691 17.3083 106.833 17.25 106.999 17.25H108.174C108.341 17.25 108.474 17.3083 108.574 17.425C108.691 17.525 108.749 17.6583 108.749 17.825V22H111.849C112.016 22 112.149 22.0583 112.249 22.175C112.366 22.275 112.424 22.4083 112.424 22.575V23.425C112.424 23.5917 112.366 23.7333 112.249 23.85C112.149 23.95 112.016 24 111.849 24H108.749V30.425C108.749 31.2583 108.891 31.8917 109.174 32.325C109.458 32.7417 109.924 32.95 110.574 32.95H112.099C112.266 32.95 112.399 33.0083 112.499 33.125C112.616 33.225 112.674 33.3583 112.674 33.525V34.425C112.674 34.5917 112.616 34.7333 112.499 34.85C112.399 34.95 112.266 35 112.099 35H110.374ZM119.565 35.25C118.398 35.25 117.415 35.0667 116.615 34.7C115.832 34.3167 115.24 33.8833 114.84 33.4C114.457 32.9167 114.265 32.5167 114.265 32.2C114.265 32.0333 114.323 31.9083 114.44 31.825C114.573 31.725 114.707 31.675 114.84 31.675H115.965C116.132 31.675 116.282 31.7583 116.415 31.925C116.815 32.3917 117.248 32.7583 117.715 33.025C118.182 33.2917 118.807 33.425 119.59 33.425C120.457 33.425 121.157 33.2583 121.69 32.925C122.24 32.575 122.515 32.1 122.515 31.5C122.515 31.1 122.398 30.775 122.165 30.525C121.948 30.2583 121.565 30.0333 121.015 29.85C120.482 29.65 119.682 29.4333 118.615 29.2C117.165 28.8833 116.132 28.425 115.515 27.825C114.915 27.225 114.615 26.45 114.615 25.5C114.615 24.8667 114.798 24.2667 115.165 23.7C115.548 23.1167 116.098 22.65 116.815 22.3C117.548 21.9333 118.423 21.75 119.44 21.75C120.507 21.75 121.415 21.925 122.165 22.275C122.915 22.625 123.473 23.0417 123.84 23.525C124.223 23.9917 124.415 24.3833 124.415 24.7C124.415 24.85 124.357 24.975 124.24 25.075C124.14 25.175 124.015 25.225 123.865 25.225H122.815C122.615 25.225 122.448 25.1417 122.315 24.975C122.048 24.6583 121.815 24.4167 121.615 24.25C121.432 24.0667 121.157 23.9083 120.79 23.775C120.44 23.6417 119.99 23.575 119.44 23.575C118.64 23.575 118.023 23.75 117.59 24.1C117.157 24.4333 116.94 24.875 116.94 25.425C116.94 25.775 117.032 26.075 117.215 26.325C117.398 26.5583 117.748 26.775 118.265 26.975C118.798 27.175 119.565 27.3833 120.565 27.6C122.148 27.9333 123.265 28.4167 123.915 29.05C124.582 29.6667 124.915 30.4583 124.915 31.425C124.915 32.1417 124.707 32.7917 124.29 33.375C123.873 33.9583 123.257 34.4167 122.44 34.75C121.64 35.0833 120.682 35.25 119.565 35.25Z" fill="#FFFBEE"/>
<path d="M9.73877 17.3638C9.93417 17.3638 10.1255 17.2781 10.2635 17.1292C10.4015 16.98 10.481 16.7735 10.481 16.563C10.481 16.3522 10.4015 16.1457 10.2635 15.9968C10.1255 15.8479 9.93417 15.7622 9.73877 15.7622C9.54278 15.7622 9.35231 15.8479 9.21402 15.9968C9.07602 16.1457 8.99658 16.3522 8.99658 16.563C8.99658 16.7735 9.07602 16.98 9.21402 17.1292C9.35231 17.2781 9.54365 17.3638 9.73877 17.3638Z" fill="#FFFBEE"/>
<path d="M20.3705 16.3035C20.232 16.1546 20.0412 16.0688 19.8452 16.0688C19.6501 16.0688 19.4585 16.1546 19.3205 16.3035C19.1825 16.4523 19.103 16.6591 19.103 16.8696C19.103 17.0801 19.1825 17.2869 19.3205 17.4358C19.4585 17.5847 19.6501 17.6704 19.8452 17.6704C20.0412 17.6704 20.232 17.5847 20.3705 17.4358C20.5085 17.2869 20.5874 17.0811 20.5874 16.8696C20.5874 16.6591 20.5085 16.4523 20.3705 16.3035Z" fill="#FFFBEE"/>
<path d="M22.4434 14.8677C22.6389 14.8677 22.8302 14.782 22.9682 14.6331C23.1062 14.4842 23.1851 14.2774 23.1851 14.0669C23.1851 13.8564 23.1062 13.6496 22.9682 13.5007C22.8302 13.3518 22.6389 13.2661 22.4434 13.2661C22.2478 13.2661 22.0561 13.3518 21.9181 13.5007C21.7801 13.6496 21.7007 13.8564 21.7007 14.0669C21.7007 14.2774 21.7801 14.4842 21.9181 14.6331C22.0561 14.782 22.2478 14.8677 22.4434 14.8677Z" fill="#FFFBEE"/>
<path d="M35.7734 19.6989H33.7025L37.3479 15.7657C37.7683 15.3118 37.9999 14.7084 37.9999 14.0668C37.9999 13.4253 37.7683 12.8219 37.3479 12.3683L34.0414 8.80077C33.7518 8.48828 33.2818 8.48828 32.9919 8.80077C32.5715 9.25465 32.0123 9.50459 31.4177 9.50459C30.8228 9.50459 30.2638 9.25465 29.8431 8.80077C29.4225 8.34721 29.1911 7.7438 29.1911 7.10224C29.1911 6.46037 29.4228 5.85728 29.8431 5.4034C29.9823 5.25325 30.0606 5.04961 30.0606 4.83722C30.0606 4.62482 29.9823 4.42119 29.8431 4.27104L26.5369 0.703812C26.1163 0.249931 25.5573 0 24.9624 0C24.3678 0 23.8085 0.249931 23.3881 0.703812L11.1299 13.9295C10.84 14.242 10.84 14.7491 11.1299 15.0619C11.4198 15.3747 11.8898 15.3747 12.1797 15.0619L24.4376 1.83617C24.578 1.68477 24.7641 1.60156 24.9624 1.60156C25.1607 1.60156 25.3471 1.68477 25.4871 1.83617L28.3211 4.89352C27.9213 5.54291 27.7067 6.3049 27.7067 7.10224C27.7067 8.17172 28.0926 9.17708 28.7936 9.93344C29.4946 10.6895 30.4264 11.1061 31.4177 11.1061C32.1567 11.1061 32.8626 10.8747 33.4648 10.4433L36.2984 13.5007C36.5877 13.8129 36.5877 14.3208 36.2984 14.633L31.6032 19.6989H28.3495L30.788 17.0679C31.0776 16.7551 31.0776 16.248 30.788 15.9355L23.2307 7.78165C22.9408 7.46885 22.4708 7.46885 22.1809 7.78165L11.1357 19.6989H2.22656C0.998762 19.6989 0 20.7765 0 22.1012V27.1462C0 27.5882 0.332244 27.947 0.742186 27.947C1.96998 27.947 2.96874 29.0246 2.96874 30.3493C2.96874 31.6737 1.96998 32.7516 0.742186 32.7516C0.332244 32.7516 0 33.1101 0 33.5524V38.5973C0 39.9218 0.998762 40.9997 2.22656 40.9997H35.7734C37.0012 40.9997 37.9999 39.9218 37.9999 38.5973V33.5524C37.9999 33.1101 37.6677 32.7516 37.2577 32.7516C36.0299 32.7516 35.0312 31.6737 35.0312 30.3493C35.0312 29.0246 36.0299 27.947 37.2577 27.947C37.6677 27.947 37.9999 27.5882 37.9999 27.1462V22.1012C37.9999 20.7765 37.0012 19.6989 35.7734 19.6989ZM22.7057 9.48019L29.2134 16.5017L26.2502 19.6989H23.3113L25.4871 17.351C25.7771 17.0385 25.7771 16.5314 25.4871 16.2186C25.1975 15.9058 24.7276 15.9058 24.4376 16.2186L21.212 19.6986H13.235L22.7057 9.48019ZM36.5156 26.4258C34.8239 26.7977 33.5468 28.4155 33.5468 30.3493C33.5468 32.2827 34.8239 33.9006 36.5156 34.2728V38.5973C36.5156 39.0387 36.1827 39.3981 35.7734 39.3981H2.22656C1.8172 39.3981 1.48437 39.0387 1.48437 38.5973V34.2728C3.17603 33.9006 4.45312 32.2827 4.45312 30.3493C4.45312 28.4155 3.17603 26.798 1.48437 26.4258V22.1012C1.48437 21.6596 1.8172 21.3005 2.22656 21.3005H35.7734C36.1827 21.3005 36.5156 21.6596 36.5156 22.1012V26.4258Z" fill="#FFFBEE"/>
<path d="M15.8509 28.9937C15.9889 28.8445 16.0684 28.638 16.0684 28.4275C16.0684 28.2167 15.9889 28.0102 15.8509 27.8613C15.7129 27.7124 15.5213 27.6267 15.3262 27.6267C15.1311 27.6267 14.9394 27.7124 14.8014 27.8613C14.6634 28.0102 14.584 28.2167 14.584 28.4275C14.584 28.638 14.6634 28.8445 14.8014 28.9937C14.9394 29.1426 15.1311 29.2283 15.3262 29.2283C15.5213 29.2283 15.7129 29.1426 15.8509 28.9937Z" fill="#FFFBEE"/>
<path d="M23.1986 28.9937C23.3366 28.8445 23.416 28.638 23.416 28.4275C23.416 28.2167 23.3366 28.0102 23.1986 27.8613C23.0606 27.7124 22.8689 27.6267 22.6738 27.6267C22.4787 27.6267 22.2871 27.7124 22.1491 27.8613C22.0111 28.0102 21.9316 28.2167 21.9316 28.4275C21.9316 28.638 22.0111 28.8445 22.1491 28.9937C22.2871 29.1426 22.4787 29.2283 22.6738 29.2283C22.8689 29.2283 23.0606 29.1426 23.1986 28.9937Z" fill="#FFFBEE"/>
<path d="M19.5247 28.9937C19.6627 28.8445 19.7422 28.638 19.7422 28.4275C19.7422 28.2167 19.6627 28.0102 19.5247 27.8613C19.3867 27.7124 19.1951 27.6267 19 27.6267C18.8049 27.6267 18.6133 27.7124 18.4752 27.8613C18.3372 28.0102 18.2578 28.2167 18.2578 28.4275C18.2578 28.638 18.3372 28.8445 18.4752 28.9937C18.6133 29.1426 18.8049 29.2283 19 29.2283C19.1951 29.2283 19.3867 29.1426 19.5247 28.9937Z" fill="#FFFBEE"/>
<path d="M11.6523 29.2283C11.8475 29.2283 12.0391 29.1426 12.1771 28.9937C12.3151 28.8445 12.3945 28.638 12.3945 28.4275C12.3945 28.2167 12.3151 28.0102 12.1771 27.8613C12.0391 27.7124 11.8475 27.6267 11.6523 27.6267C11.4572 27.6267 11.2656 27.7124 11.1276 27.8613C10.9896 28.0102 10.9102 28.2167 10.9102 28.4275C10.9102 28.638 10.9896 28.8445 11.1276 28.9937C11.2656 29.1426 11.4572 29.2283 11.6523 29.2283Z" fill="#FFFBEE"/>
<path d="M26.8724 28.9937C27.0104 28.8445 27.0898 28.638 27.0898 28.4275C27.0898 28.2167 27.0104 28.0102 26.8724 27.8613C26.7344 27.7124 26.5428 27.6267 26.3477 27.6267C26.1525 27.6267 25.9609 27.7124 25.8229 27.8613C25.6849 28.0102 25.6055 28.2167 25.6055 28.4275C25.6055 28.638 25.6849 28.8445 25.8229 28.9937C25.9609 29.1426 26.1525 29.2283 26.3477 29.2283C26.5428 29.2283 26.7344 29.1426 26.8724 28.9937Z" fill="#FFFBEE"/>
<path d="M11.6523 33.072H26.3476C26.7576 33.072 27.0898 32.7132 27.0898 32.2712C27.0898 31.8289 26.7576 31.4705 26.3476 31.4705H11.6523C11.2424 31.4705 10.9102 31.8289 10.9102 32.2712C10.9102 32.7132 11.2424 33.072 11.6523 33.072Z" fill="#FFFBEE"/>
<path d="M14.3481 35.3142C14.153 35.3142 13.9614 35.3999 13.8234 35.5488C13.6854 35.6977 13.606 35.9042 13.606 36.115C13.606 36.3255 13.6854 36.532 13.8234 36.6812C13.9614 36.8301 14.153 36.9158 14.3481 36.9158C14.5441 36.9158 14.7349 36.8301 14.8729 36.6812C15.0118 36.532 15.0903 36.3255 15.0903 36.115C15.0903 35.9042 15.0118 35.6977 14.8729 35.5488C14.7349 35.3999 14.5441 35.3142 14.3481 35.3142Z" fill="#FFFBEE"/>
<path d="M30.2812 23.783H7.71875C7.30881 23.783 6.97656 24.1414 6.97656 24.5837V36.115C6.97656 36.557 7.30881 36.9158 7.71875 36.9158H10.8104C11.2204 36.9158 11.5526 36.557 11.5526 36.115C11.5526 35.6727 11.2204 35.3142 10.8104 35.3142H8.46093V25.3845H29.539V35.3142H17.4901C17.0802 35.3142 16.7479 35.6727 16.7479 36.115C16.7479 36.557 17.0802 36.9158 17.4901 36.9158H30.2812C30.6912 36.9158 31.0234 36.557 31.0234 36.115V24.5837C31.0234 24.1414 30.6912 23.783 30.2812 23.783Z" fill="#FFFBEE"/>
</svg>
