<svg width="385" height="344" viewBox="0 0 385 344" fill="none" xmlns="http://www.w3.org/2000/svg">
<g clip-path="url(#clip0)">
<path d="M12.03 79.303H372.939C379.58 79.303 384.969 73.913 384.969 67.273C384.969 60.632 379.579 55.243 372.939 55.243H12.03C5.389 55.243 0 60.633 0 67.273C0 73.913 5.39 79.303 12.03 79.303Z" fill="#FFFBEE"/>
<path d="M372.939 139.455H12.03C5.389 139.455 0 144.845 0 151.485C0 158.125 5.39 163.515 12.03 163.515H372.939C379.58 163.515 384.969 158.125 384.969 151.485C384.969 144.845 379.58 139.455 372.939 139.455Z" fill="#FFFBEE"/>
<path d="M372.939 223.667H132.333C125.692 223.667 120.303 229.057 120.303 235.697C120.303 242.338 125.693 247.727 132.333 247.727H372.939C379.58 247.727 384.969 242.337 384.969 235.697C384.97 229.056 379.58 223.667 372.939 223.667Z" fill="#FFFBEE"/>
</g>
<defs>
<clipPath id="clip0">
<rect width="384.97" height="384.97" fill="white" transform="translate(0 -41)"/>
</clipPath>
</defs>
</svg>
