<svg width="38" height="41" viewBox="0 0 38 41" fill="none" xmlns="http://www.w3.org/2000/svg">
<path d="M9.73926 17.3638C9.93466 17.3638 10.126 17.2781 10.264 17.1292C10.402 16.98 10.4814 16.7735 10.4814 16.563C10.4814 16.3522 10.402 16.1457 10.264 15.9968C10.126 15.8479 9.93466 15.7622 9.73926 15.7622C9.54327 15.7622 9.3528 15.8479 9.21451 15.9968C9.07651 16.1457 8.99707 16.3522 8.99707 16.563C8.99707 16.7735 9.07651 16.98 9.21451 17.1292C9.3528 17.2781 9.54414 17.3638 9.73926 17.3638Z" fill="#040100" fill-opacity="0.8"/>
<path d="M20.371 16.3034C20.2325 16.1545 20.0417 16.0688 19.8457 16.0688C19.6506 16.0688 19.459 16.1545 19.321 16.3034C19.183 16.4523 19.1035 16.6591 19.1035 16.8696C19.1035 17.0801 19.183 17.2869 19.321 17.4358C19.459 17.5847 19.6506 17.6704 19.8457 17.6704C20.0417 17.6704 20.2325 17.5847 20.371 17.4358C20.509 17.2869 20.5879 17.0811 20.5879 16.8696C20.5879 16.6591 20.509 16.4523 20.371 16.3034Z" fill="#040100" fill-opacity="0.8"/>
<path d="M22.4439 14.8676C22.6393 14.8676 22.8307 14.7819 22.9687 14.633C23.1067 14.4841 23.1855 14.2774 23.1855 14.0669C23.1855 13.8563 23.1067 13.6496 22.9687 13.5007C22.8307 13.3518 22.6393 13.2661 22.4439 13.2661C22.2482 13.2661 22.0566 13.3518 21.9186 13.5007C21.7806 13.6496 21.7012 13.8563 21.7012 14.0669C21.7012 14.2774 21.7806 14.4841 21.9186 14.633C22.0566 14.7819 22.2482 14.8676 22.4439 14.8676Z" fill="#040100" fill-opacity="0.8"/>
<path d="M35.7734 19.6989H33.7025L37.3479 15.7657C37.7683 15.3118 37.9999 14.7084 37.9999 14.0668C37.9999 13.4253 37.7683 12.8219 37.3479 12.3683L34.0414 8.80077C33.7518 8.48828 33.2818 8.48828 32.9919 8.80077C32.5715 9.25465 32.0123 9.50459 31.4177 9.50459C30.8228 9.50459 30.2638 9.25465 29.8431 8.80077C29.4225 8.34721 29.1911 7.7438 29.1911 7.10224C29.1911 6.46037 29.4227 5.85728 29.8431 5.4034C29.9823 5.25325 30.0606 5.04961 30.0606 4.83722C30.0606 4.62482 29.9823 4.42119 29.8431 4.27104L26.5369 0.703812C26.1163 0.249931 25.5573 0 24.9624 0C24.3678 0 23.8085 0.249931 23.3881 0.703812L11.1299 13.9295C10.84 14.242 10.84 14.7491 11.1299 15.0619C11.4198 15.3747 11.8898 15.3747 12.1797 15.0619L24.4376 1.83617C24.578 1.68477 24.7641 1.60156 24.9624 1.60156C25.1607 1.60156 25.3471 1.68477 25.4871 1.83617L28.3211 4.89352C27.9213 5.54291 27.7067 6.3049 27.7067 7.10224C27.7067 8.17172 28.0926 9.17708 28.7936 9.93344C29.4946 10.6895 30.4264 11.1061 31.4177 11.1061C32.1567 11.1061 32.8626 10.8747 33.4648 10.4433L36.2984 13.5007C36.5877 13.8129 36.5877 14.3208 36.2984 14.633L31.6032 19.6989H28.3495L30.788 17.0679C31.0776 16.7551 31.0776 16.248 30.788 15.9355L23.2307 7.78165C22.9408 7.46885 22.4708 7.46885 22.1809 7.78165L11.1357 19.6989H2.22656C0.998762 19.6989 0 20.7765 0 22.1012V27.1462C0 27.5882 0.332244 27.947 0.742186 27.947C1.96998 27.947 2.96874 29.0246 2.96874 30.3493C2.96874 31.6737 1.96998 32.7516 0.742186 32.7516C0.332244 32.7516 0 33.1101 0 33.5524V38.5973C0 39.9218 0.998762 40.9997 2.22656 40.9997H35.7734C37.0012 40.9997 37.9999 39.9218 37.9999 38.5973V33.5524C37.9999 33.1101 37.6677 32.7516 37.2577 32.7516C36.0299 32.7516 35.0312 31.6737 35.0312 30.3493C35.0312 29.0246 36.0299 27.947 37.2577 27.947C37.6677 27.947 37.9999 27.5882 37.9999 27.1462V22.1012C37.9999 20.7765 37.0012 19.6989 35.7734 19.6989V19.6989ZM22.7057 9.48019L29.2134 16.5017L26.2502 19.6989H23.3113L25.4871 17.351C25.7771 17.0385 25.7771 16.5314 25.4871 16.2186C25.1975 15.9058 24.7276 15.9058 24.4376 16.2186L21.212 19.6986H13.235L22.7057 9.48019ZM36.5156 26.4258C34.8239 26.7977 33.5468 28.4155 33.5468 30.3493C33.5468 32.2827 34.8239 33.9006 36.5156 34.2728V38.5973C36.5156 39.0387 36.1827 39.3981 35.7734 39.3981H2.22656C1.8172 39.3981 1.48437 39.0387 1.48437 38.5973V34.2728C3.17603 33.9006 4.45312 32.2827 4.45312 30.3493C4.45312 28.4155 3.17603 26.798 1.48437 26.4258V22.1012C1.48437 21.6596 1.8172 21.3005 2.22656 21.3005H35.7734C36.1827 21.3005 36.5156 21.6596 36.5156 22.1012V26.4258Z" fill="#040100" fill-opacity="0.8"/>
<path d="M15.8509 28.9936C15.9889 28.8444 16.0684 28.6379 16.0684 28.4274C16.0684 28.2166 15.9889 28.0101 15.8509 27.8613C15.7129 27.7124 15.5213 27.6266 15.3262 27.6266C15.1311 27.6266 14.9394 27.7124 14.8014 27.8613C14.6634 28.0101 14.584 28.2166 14.584 28.4274C14.584 28.6379 14.6634 28.8444 14.8014 28.9936C14.9394 29.1425 15.1311 29.2282 15.3262 29.2282C15.5213 29.2282 15.7129 29.1425 15.8509 28.9936Z" fill="#040100" fill-opacity="0.8"/>
<path d="M23.1986 28.9936C23.3366 28.8444 23.416 28.6379 23.416 28.4274C23.416 28.2166 23.3366 28.0101 23.1986 27.8613C23.0606 27.7124 22.8689 27.6266 22.6738 27.6266C22.4787 27.6266 22.2871 27.7124 22.1491 27.8613C22.0111 28.0101 21.9316 28.2166 21.9316 28.4274C21.9316 28.6379 22.0111 28.8444 22.1491 28.9936C22.2871 29.1425 22.4787 29.2282 22.6738 29.2282C22.8689 29.2282 23.0606 29.1425 23.1986 28.9936Z" fill="#040100" fill-opacity="0.8"/>
<path d="M19.5247 28.9936C19.6627 28.8444 19.7422 28.6379 19.7422 28.4274C19.7422 28.2166 19.6627 28.0101 19.5247 27.8613C19.3867 27.7124 19.1951 27.6266 19 27.6266C18.8049 27.6266 18.6133 27.7124 18.4752 27.8613C18.3372 28.0101 18.2578 28.2166 18.2578 28.4274C18.2578 28.6379 18.3372 28.8444 18.4752 28.9936C18.6133 29.1425 18.8049 29.2282 19 29.2282C19.1951 29.2282 19.3867 29.1425 19.5247 28.9936Z" fill="#040100" fill-opacity="0.8"/>
<path d="M11.6523 29.2282C11.8475 29.2282 12.0391 29.1425 12.1771 28.9936C12.3151 28.8444 12.3945 28.6379 12.3945 28.4274C12.3945 28.2166 12.3151 28.0101 12.1771 27.8613C12.0391 27.7124 11.8475 27.6266 11.6523 27.6266C11.4572 27.6266 11.2656 27.7124 11.1276 27.8613C10.9896 28.0101 10.9102 28.2166 10.9102 28.4274C10.9102 28.6379 10.9896 28.8444 11.1276 28.9936C11.2656 29.1425 11.4572 29.2282 11.6523 29.2282Z" fill="#040100" fill-opacity="0.8"/>
<path d="M26.8724 28.9936C27.0104 28.8444 27.0898 28.6379 27.0898 28.4274C27.0898 28.2166 27.0104 28.0101 26.8724 27.8613C26.7344 27.7124 26.5428 27.6266 26.3477 27.6266C26.1525 27.6266 25.9609 27.7124 25.8229 27.8613C25.6849 28.0101 25.6055 28.2166 25.6055 28.4274C25.6055 28.6379 25.6849 28.8444 25.8229 28.9936C25.9609 29.1425 26.1525 29.2282 26.3477 29.2282C26.5428 29.2282 26.7344 29.1425 26.8724 28.9936Z" fill="#040100" fill-opacity="0.8"/>
<path d="M11.6523 33.072H26.3476C26.7576 33.072 27.0898 32.7132 27.0898 32.2712C27.0898 31.8289 26.7576 31.4704 26.3476 31.4704H11.6523C11.2424 31.4704 10.9102 31.8289 10.9102 32.2712C10.9102 32.7132 11.2424 33.072 11.6523 33.072Z" fill="#040100" fill-opacity="0.8"/>
<path d="M14.3477 35.3141C14.1525 35.3141 13.9609 35.3999 13.8229 35.5488C13.6849 35.6976 13.6055 35.9041 13.6055 36.1149C13.6055 36.3254 13.6849 36.5319 13.8229 36.6811C13.9609 36.83 14.1525 36.9157 14.3477 36.9157C14.5436 36.9157 14.7344 36.83 14.8724 36.6811C15.0113 36.5319 15.0898 36.3254 15.0898 36.1149C15.0898 35.9041 15.0113 35.6976 14.8724 35.5488C14.7344 35.3999 14.5436 35.3141 14.3477 35.3141Z" fill="#040100" fill-opacity="0.8"/>
<path d="M30.2812 23.7829H7.71875C7.30881 23.7829 6.97656 24.1414 6.97656 24.5837V36.1149C6.97656 36.5569 7.30881 36.9157 7.71875 36.9157H10.8104C11.2204 36.9157 11.5526 36.5569 11.5526 36.1149C11.5526 35.6726 11.2204 35.3141 10.8104 35.3141H8.46093V25.3845H29.539V35.3141H17.4901C17.0802 35.3141 16.7479 35.6726 16.7479 36.1149C16.7479 36.5569 17.0802 36.9157 17.4901 36.9157H30.2812C30.6912 36.9157 31.0234 36.5569 31.0234 36.1149V24.5837C31.0234 24.1414 30.6912 23.7829 30.2812 23.7829Z" fill="#040100" fill-opacity="0.8"/>
</svg>
