<svg width="21" height="23" viewBox="0 0 21 23" fill="none" xmlns="http://www.w3.org/2000/svg">
<g clip-path="url(#clip0)">
<path d="M14.875 5.75015H1.09134C0.583486 5.75015 0.116935 6.12507 0.0203437 6.67091C-0.109839 7.40498 0.402526 8.05014 1.05004 8.05014H14.875C14.9716 8.05014 15.05 7.9643 15.05 7.85846V5.94179C15.05 5.83604 14.9716 5.75015 14.875 5.75015Z" fill="#040100" fill-opacity="0.93"/>
<path d="M20.8761 6.60731L16.3261 2.39064C16.2222 2.29442 16.0766 2.27258 15.9527 2.33543C15.8291 2.39868 15.75 2.53398 15.75 2.68348V11.1168C15.75 11.2663 15.8291 11.4016 15.9527 11.4645C15.9999 11.4886 16.0499 11.5001 16.1 11.5001C16.1812 11.5001 16.2617 11.4691 16.3261 11.4097L20.8761 7.19299C20.9549 7.11977 21 7.01281 21 6.90015C21 6.78749 20.9548 6.68053 20.8761 6.60731Z" fill="#040100" fill-opacity="0.93"/>
<path d="M5.04732 11.5358C4.92341 11.473 4.77781 11.4948 4.67388 11.591L0.123908 15.8076C0.045158 15.8804 0 15.9874 0 16.1001C0 16.2128 0.045158 16.3198 0.123908 16.393L4.67388 20.6096C4.73827 20.6691 4.81878 20.7001 4.89999 20.7001C4.95003 20.7001 5.00011 20.6886 5.04736 20.6644C5.1709 20.6016 5.25002 20.4662 5.25002 20.3167V11.8835C5.24998 11.734 5.1709 11.5986 5.04732 11.5358Z" fill="#040100" fill-opacity="0.93"/>
<path d="M20.9799 15.8709C20.8829 15.325 20.4164 14.9501 19.9089 14.9501H6.12521C6.02862 14.9501 5.9502 15.036 5.9502 15.1418V17.0585C5.9502 17.1643 6.02858 17.2502 6.12521 17.2502H19.9502C20.5977 17.2501 21.1101 16.605 20.9799 15.8709Z" fill="#040100" fill-opacity="0.93"/>
</g>
<defs>
<clipPath id="clip0">
<rect width="21" height="23" fill="white"/>
</clipPath>
</defs>
</svg>
