<svg height="512pt" viewBox="0 0 512 512" width="512pt" xmlns="http://www.w3.org/2000/svg"><path d="m50 147c2.628906 0 5.210938-1.070312 7.070312-2.929688 1.859376-1.859374 2.929688-4.441406 2.929688-7.070312s-1.070312-5.210938-2.929688-7.070312c-1.859374-1.859376-4.441406-2.929688-7.070312-2.929688s-5.210938 1.070312-7.070312 2.929688c-1.859376 1.859374-2.929688 4.441406-2.929688 7.070312s1.070312 5.210938 2.929688 7.070312c1.859374 1.859376 4.441406 2.929688 7.070312 2.929688zm0 0"/><path d="m512 400.09375c0-5.523438-4.476562-10-10-10h-22.09375v-320.09375c0-16.542969-13.457031-30-30-30h-52.984375v-10c0-16.542969-13.457031-30-30-30s-30 13.457031-30 30v10h-67v-10c0-16.542969-13.457031-30-30-30s-30 13.457031-30 30v10h-66.9375v-10c0-16.542969-13.457031-30-30-30s-30 13.457031-30 30v10h-52.984375c-16.542969 0-30 13.457031-30 30v412c0 16.542969 13.457031 30 30 30h419.90625c16.542969 0 30-13.457031 30-30v-26.535156c19.160156-11.039063 32.09375-31.714844 32.09375-55.371094zm-155.078125-370.09375c0-5.515625 4.484375-10 10-10s10 4.484375 10 10v48c0 5.515625-4.484375 10-10 10s-10-4.484375-10-10zm-127 0c0-5.515625 4.484375-10 10-10s10 4.484375 10 10v48c0 5.515625-4.484375 10-10 10s-10-4.484375-10-10zm-126.9375 0c0-5.515625 4.484375-10 10-10 5.511719 0 10 4.484375 10 10v48c0 5.515625-4.488281 10-10 10-5.515625 0-10-4.484375-10-10zm-82.984375 40c0-5.515625 4.484375-10 10-10h52.984375v18c0 16.542969 13.457031 30 30 30s30-13.457031 30-30v-18h66.9375v18c0 16.542969 13.457031 30 30 30s30-13.457031 30-30v-18h67v18c0 16.542969 13.457031 30 30 30s30-13.457031 30-30v-18h52.984375c5.515625 0 10 4.484375 10 10v57h-369.90625c-5.523438 0-10 4.476562-10 10s4.476562 10 10 10h369.90625v203h-86.714844c-5.523437 0-10 4.476562-10 10s4.476563 10 10 10h86.714844v20.09375h-342.15625c-5.523438 0-10 4.476562-10 10 0 24.191406-19.683594 43.875-43.875 43.875s-43.875-19.683594-43.875-43.875zm439.90625 412c0 5.515625-4.484375 10-10 10h-419.90625c-5.515625 0-10-4.484375-10-10v-35.550781c11.453125 10.847656 26.894531 17.519531 43.875 17.519531.511719 0 1.019531-.003906 1.53125-.019531.199219.015625.402344.019531.605469.019531h382.113281c4.023438 0 7.960938-.390625 11.78125-1.105469zm-11.78125-38.03125h-337.867188c8.664063-9.15625 14.65625-20.871094 16.710938-33.875h363.882812c-4.539062 19.390625-21.972656 33.875-42.726562 33.875zm0 0"/><path d="m100.8125 304.0625 71.675781 50.199219c1.714844 1.199219 3.722657 1.808593 5.738281 1.808593 1.71875 0 3.445313-.445312 4.996094-1.339843l181.699219-104.902344c17.605469-10.164063 23.65625-32.757813 13.492187-50.363281-4.921874-8.527344-12.875-14.628906-22.386718-17.179688-9.511719-2.546875-19.449219-1.238281-27.976563 3.683594l-56.917969 32.863281-82.984374-28.640625c-2.738282-.945312-5.753907-.65625-8.265626.792969l-23.910156 13.804687c-2.753906 1.59375-4.589844 4.398438-4.9375 7.5625-.351562 3.164063.824219 6.300782 3.167969 8.457032l43.753906 40.269531-26.980469 15.582031-23.1875-11.121094c-2.976562-1.425781-6.464843-1.292968-9.324218.359376l-36.917969 21.3125c-2.960937 1.710937-4.84375 4.8125-4.992187 8.226562-.148438 3.410156 1.457031 6.664062 4.257812 8.625zm76.945312-88.757812 8.175782-4.71875 62.265625 21.488281-32.089844 18.527343zm-33.859374 70.546874 23.1875 11.117188c2.972656 1.429688 6.464843 1.296875 9.320312-.355469l161.644531-93.324219c3.902344-2.253906 8.449219-2.851562 12.800781-1.683593 4.351563 1.164062 7.992188 3.957031 10.242188 7.859375 4.652344 8.054687 1.882812 18.390625-6.171875 23.042968l-71.863281 41.488282-104.316406 60.226562-53.601563-37.539062zm0 0"/><path d="m333.1875 350c-2.628906 0-5.207031 1.070312-7.066406 2.929688-1.859375 1.859374-2.933594 4.441406-2.933594 7.070312s1.070312 5.210938 2.933594 7.070312c1.859375 1.859376 4.4375 2.929688 7.066406 2.929688 2.632812 0 5.210938-1.070312 7.070312-2.929688 1.859376-1.859374 2.929688-4.441406 2.929688-7.070312s-1.066406-5.210938-2.929688-7.070312c-1.859374-1.859376-4.4375-2.929688-7.070312-2.929688zm0 0"/></svg>