<svg width="21" height="21" viewBox="0 0 21 21" fill="none" xmlns="http://www.w3.org/2000/svg">
<g clip-path="url(#clip0)">
<path d="M4.48761 3.6541H0.617642C0.276485 3.6541 0 3.37743 0 3.03646C0 2.69549 0.276485 2.41882 0.617642 2.41882H4.48761C4.82876 2.41882 5.10525 2.69549 5.10525 3.03646C5.10525 3.37743 4.82876 3.6541 4.48761 3.6541Z" fill="#040100" fill-opacity="0.8"/>
<path d="M6.69923 5.86539C5.13921 5.86539 3.87012 4.5963 3.87012 3.03642C3.87012 1.47622 5.13921 0.207123 6.69923 0.207123C8.25925 0.207123 9.52834 1.47622 9.52834 3.03642C9.52834 4.59635 8.25925 5.86539 6.69923 5.86539ZM6.69923 1.44245C5.82037 1.44245 5.1054 2.15756 5.1054 3.03642C5.1054 3.91528 5.82037 4.63006 6.69923 4.63006C7.57808 4.63006 8.29305 3.91528 8.29305 3.03642C8.29305 2.15756 7.57808 1.44245 6.69923 1.44245Z" fill="#040100" fill-opacity="0.8"/>
<path d="M20.3821 3.6541H11.1508C10.8097 3.6541 10.5332 3.37743 10.5332 3.03646C10.5332 2.69549 10.8097 2.41882 11.1508 2.41882H20.3821C20.7232 2.41882 20.9997 2.69549 20.9997 3.03646C20.9997 3.37743 20.7233 3.6541 20.3821 3.6541Z" fill="#040100" fill-opacity="0.8"/>
<path d="M14.9922 13.329C13.4321 13.329 12.1631 12.0599 12.1631 10.5C12.1631 8.94011 13.4322 7.67102 14.9922 7.67102C16.5522 7.67102 17.8213 8.94011 17.8213 10.5C17.8213 12.0599 16.5523 13.329 14.9922 13.329ZM14.9922 8.90635C14.1133 8.90635 13.3984 9.62113 13.3984 10.5C13.3984 11.3788 14.1133 12.0936 14.9922 12.0936C15.8711 12.0936 16.586 11.3788 16.586 10.5C16.586 9.62113 15.8711 8.90635 14.9922 8.90635Z" fill="#040100" fill-opacity="0.8"/>
<path d="M10.5401 11.1177H0.617642C0.276485 11.1177 0 10.841 0 10.5C0 10.159 0.276485 9.88235 0.617642 9.88235H10.5401C10.8812 9.88235 11.1577 10.159 11.1577 10.5C11.1577 10.841 10.8812 11.1177 10.5401 11.1177Z" fill="#040100" fill-opacity="0.8"/>
<path d="M20.3825 11.1177H17.2036C16.8624 11.1177 16.5859 10.841 16.5859 10.5C16.5859 10.159 16.8624 9.88235 17.2036 9.88235H20.3825C20.7237 9.88235 21.0002 10.159 21.0002 10.5C21.0002 10.841 20.7237 11.1177 20.3825 11.1177Z" fill="#040100" fill-opacity="0.8"/>
<path d="M6.00782 20.7928C4.4478 20.7928 3.17871 19.5238 3.17871 17.9636C3.17871 16.4037 4.4478 15.1346 6.00782 15.1346C7.56783 15.1346 8.83692 16.4037 8.83692 17.9636C8.83692 19.5238 7.56783 20.7928 6.00782 20.7928ZM6.00782 16.3699C5.12896 16.3699 4.41399 17.0847 4.41399 17.9636C4.41399 18.8424 5.12896 19.5575 6.00782 19.5575C6.88667 19.5575 7.60164 18.8424 7.60164 17.9636C7.60164 17.0847 6.88667 16.3699 6.00782 16.3699Z" fill="#040100" fill-opacity="0.8"/>
<path d="M20.3828 18.5812H10.4604C10.1193 18.5812 9.84277 18.3046 9.84277 17.9636C9.84277 17.6226 10.1193 17.3459 10.4604 17.3459H20.3828C20.724 17.3459 21.0005 17.6226 21.0005 17.9636C21.0005 18.3046 20.724 18.5812 20.3828 18.5812Z" fill="#040100" fill-opacity="0.8"/>
<path d="M3.7966 18.5812H0.617642C0.276485 18.5812 0 18.3045 0 17.9635C0 17.6226 0.276485 17.3459 0.617642 17.3459H3.7966C4.13776 17.3459 4.41424 17.6226 4.41424 17.9635C4.41424 18.3045 4.13776 18.5812 3.7966 18.5812Z" fill="#040100" fill-opacity="0.8"/>
</g>
<defs>
<clipPath id="clip0">
<rect width="21" height="21" fill="white"/>
</clipPath>
</defs>
</svg>
