<svg width="49" height="47" viewBox="0 0 49 47" fill="none" xmlns="http://www.w3.org/2000/svg">
<path d="M24.5 47C38.0342 47 49 36.4818 49 23.5C49 10.5182 38.0342 0 24.5 0C10.9658 0 0 10.5182 0 23.5C0 36.4818 10.9658 47 24.5 47ZM11.2108 22.9908L34.8329 14.2547C35.9293 13.8748 36.8868 14.5113 36.5315 16.1014L36.5336 16.0995L32.5115 34.2748C32.2134 35.5633 31.4151 35.8767 30.2983 35.2696L24.1733 30.9397L21.219 33.6696C20.8924 33.983 20.6168 34.2473 19.9838 34.2473L20.4187 28.2685L31.7704 18.4318C32.2645 18.0147 31.6601 17.7797 31.0088 18.1949L16.9805 26.6666L10.9331 24.8571C9.62033 24.4576 9.59175 23.5979 11.2108 22.9908Z" fill="#FFFBEE"/>
</svg>
