<svg id="Layer_1" enable-background="new 0 0 512.062 512.062" height="512" viewBox="0 0 512.062 512.062" width="512" xmlns="http://www.w3.org/2000/svg"><g><path d="m510.975 319.709c-24.842-61.657-67.092-113.908-122.182-151.106-55.091-37.197-119.346-56.859-185.818-56.859h-202.975v30h152.731v139.384h304.784c6.151 9.64 11.766 19.652 16.818 30.003h-29.308v30h37.036v29.188h-132.051l-13.969-13.97c-29.159-29.16-67.929-45.219-109.167-45.219h-226.811v30h226.812c29.63 0 57.674 10.298 80.06 29.188h-306.935v30h512.062v-77.912zm-328.244-68.582v-109.384h20.243c60.468 0 118.917 17.886 169.03 51.723 24.065 16.249 45.428 35.664 63.646 57.661z"/><path d="m.063 251.127v30h122.665v-100.005h-122.665v30h92.665v40.005z"/></g></svg>