<svg width="46" height="41" viewBox="0 0 46 41" fill="none" xmlns="http://www.w3.org/2000/svg">
<g clip-path="url(#clip0)">
<path d="M45.093 0.847693C44.0003 -0.126297 42.1117 -0.222071 39.63 0.570622C37.9234 1.11595 36.1334 2.02981 35.277 2.79311L28.3994 8.92309L5.76042 5.75376L0 10.888L18.8224 17.4592L12.7789 22.8457L4.20136 23.2934L0.0884062 26.9593L9.39703 30.9627L6.78922 33.2871L8.6975 34.988L11.3018 32.6667L15.7979 40.9596L19.9098 37.2945L20.4122 29.6493L26.5571 24.1724L33.9281 40.9454L39.6885 35.8112L36.1334 15.6368L42.9103 9.59647C43.7667 8.83324 44.792 7.23777 45.4039 5.7166C46.2933 3.50532 46.1858 1.82152 45.093 0.847693ZM4.82515 9.98925L6.69803 8.31994L26.0385 11.0275L20.9052 15.6028L4.82515 9.98925ZM36.8094 34.9756L34.9366 36.6449L28.6398 22.3162L33.7724 17.7415L36.8094 34.9756ZM42.8634 4.90517C42.3478 6.18738 41.4956 7.4559 41.002 7.89585L17.7783 28.5954L17.2759 36.2406L16.5754 36.865L13.3228 30.8657L15.6689 28.7746L13.7606 27.0738L11.4184 29.1612L4.68418 26.265L5.38389 25.6414L13.9614 25.1937L37.1852 4.49405C37.6789 4.05402 39.1022 3.29472 40.5407 2.83499C42.1737 2.3132 43.0402 2.41971 43.1847 2.54855C43.3291 2.67732 43.4488 3.44943 42.8634 4.90517Z" fill="#040100" fill-opacity="0.8"/>
</g>
<defs>
<clipPath id="clip0">
<rect width="46" height="41" fill="white"/>
</clipPath>
</defs>
</svg>
