<svg width="23" height="23" viewBox="0 0 23 23" fill="none" xmlns="http://www.w3.org/2000/svg">
<path d="M11.5 0C5.14872 0 0 5.14872 0 11.5C0 17.8512 5.14872 23 11.5 23C17.8512 23 23 17.8512 23 11.5C22.9932 5.15156 17.8484 0.00678641 11.5 0ZM11.5 21.3571C6.05603 21.3571 1.64284 16.9439 1.64284 11.5C1.64284 6.05603 6.05603 1.64284 11.5 1.64284C16.9439 1.64284 21.3571 6.05603 21.3571 11.5C21.3512 16.9415 16.9415 21.3512 11.5 21.3571Z" fill="#040100" fill-opacity="0.8"/>
<path d="M11.5003 4.10712C11.0466 4.10712 10.6788 4.47488 10.6788 4.92856V10.6786H4.92887C4.47519 10.6786 4.10742 11.0463 4.10742 11.5C4.10742 11.9537 4.47519 12.3214 4.92887 12.3214H11.5003C11.954 12.3214 12.3217 11.9536 12.3217 11.5V4.92856C12.3217 4.47488 11.954 4.10712 11.5003 4.10712Z" fill="#040100" fill-opacity="0.8"/>
</svg>
