<svg width="20" height="20" viewBox="0 0 20 20" fill="none" xmlns="http://www.w3.org/2000/svg">
<g clip-path="url(#clip0)">
<path d="M18.1796 19.738H16.1796C16.1796 16.364 13.3496 13.62 9.86859 13.62C6.38759 13.62 3.55859 16.365 3.55859 19.738H1.55859C1.55859 15.26 5.28759 11.62 9.86959 11.62C14.4506 11.62 18.1796 15.26 18.1796 19.738Z" fill="#FFFBEE"/>
<path d="M9.86974 10.97C6.84674 10.97 4.38574 8.508 4.38574 5.485C4.38474 2.461 6.84574 0 9.86974 0C12.8947 0 15.3557 2.46 15.3557 5.485C15.3557 8.51 12.8947 10.97 9.86974 10.97ZM9.86974 2C7.94774 2 6.38474 3.563 6.38474 5.485C6.38474 7.407 7.94774 8.97 9.86974 8.97C11.7927 8.97 13.3557 7.407 13.3557 5.485C13.3557 3.563 11.7907 2 9.86974 2Z" fill="#FFFBEE"/>
</g>
<defs>
<clipPath id="clip0">
<rect width="19.738" height="19.738" fill="white"/>
</clipPath>
</defs>
</svg>
