<svg width="49" height="58" viewBox="0 0 49 58" fill="none" xmlns="http://www.w3.org/2000/svg">
<g clip-path="url(#clip0)">
<path d="M48.896 36.2127C46.5188 29.2289 42.4758 23.3106 37.2042 19.0973C31.9325 14.884 25.7838 12.657 19.423 12.657H0V16.055H14.6151V31.8427H43.7803C44.3689 32.9346 44.9062 34.0686 45.3897 35.2411H42.5851V38.6391H46.1292V41.9451H33.493L32.1563 40.3628C29.366 37.0599 25.656 35.2409 21.7099 35.2409H0.00602857V38.639H21.71C24.5454 38.639 27.2289 39.8054 29.3711 41.945H0V45.343H49V36.5182L48.896 36.2127ZM17.4858 28.4446V16.0549H19.4229C25.2092 16.0549 30.8022 18.0808 35.5976 21.9134C37.9004 23.7539 39.9447 25.953 41.688 28.4446H17.4858Z" fill="#040100" fill-opacity="0.8"/>
<path d="M0.00683594 28.4446V31.8426H11.7448V20.5153H0.00683594V23.9133H8.87409V28.4446H0.00683594Z" fill="#040100" fill-opacity="0.8"/>
</g>
<defs>
<clipPath id="clip0">
<rect width="49" height="58" fill="white"/>
</clipPath>
</defs>
</svg>
